<svg width="17" height="25" viewBox="0 0 17 25" fill="none" xmlns="http://www.w3.org/2000/svg">
<path d="M16.5723 6.09434C16.5367 5.98742 16.4743 5.81813 16.3852 5.58648C16.2961 5.35482 16.2338 5.20335 16.1981 5.13208C15.4497 3.38574 14.3538 2.09382 12.9104 1.25629C11.467 0.418763 9.96122 0 8.39308 0C6.36164 0 4.52621 0.668239 2.88679 2.00472C1.24738 3.3412 0.285115 5.22117 0 7.64465V8.66038L0.0534591 8.92767V9.30189C0.124738 9.87212 0.311845 10.5225 0.61478 11.2531C0.917715 11.9838 1.19392 12.5718 1.4434 13.0173C1.69287 13.4628 2.09382 14.1399 2.64623 15.0487C3.19864 15.9575 3.56394 16.5545 3.74214 16.8396C4.77568 18.586 6.36164 21.1698 8.5 24.5912C8.78512 24.1279 9.7652 22.4528 11.4403 19.566C11.5115 19.4591 11.6452 19.2453 11.8412 18.9245C12.0372 18.6038 12.1709 18.3543 12.2421 18.1761C12.3134 18.0692 12.4292 17.9177 12.5896 17.7217C12.75 17.5257 12.8658 17.3742 12.9371 17.2673C13.1866 16.804 13.7301 15.9219 14.5676 14.6211C15.4051 13.3202 16.0199 12.2243 16.4119 11.3333C16.804 10.4423 17 9.56918 17 8.71384V7.53774C17 7.1457 16.8574 6.66457 16.5723 6.09434ZM8.44654 11.3868C7.0566 11.3868 6.09434 10.7096 5.55975 9.35535C5.52411 9.17715 5.50629 8.90985 5.50629 8.55346V7.85849C5.50629 6.96751 5.80922 6.28145 6.41509 5.80031C7.02096 5.31918 7.73375 5.07862 8.55346 5.07862C9.44444 5.07862 10.184 5.38155 10.772 5.98742C11.3601 6.59329 11.6541 7.34172 11.6541 8.2327C11.6541 9.12369 11.3422 9.87212 10.7186 10.478C10.0949 11.0839 9.33753 11.3868 8.44654 11.3868Z" fill="#345EDD"/>
</svg>
