<svg width="26" height="21" viewBox="0 0 26 21" fill="none" xmlns="http://www.w3.org/2000/svg">
<path d="M13.6517 21C13.101 20.9968 12.5571 20.8808 12.0558 20.6595C11.5136 20.4276 11.0516 20.049 10.7251 19.5691C10.3986 19.0891 10.2213 18.5281 10.2144 17.953V3.62036C10.2213 3.04526 10.3986 2.48425 10.7251 2.00431C11.0516 1.52438 11.5136 1.14582 12.0558 0.913842C12.6797 0.627814 13.3738 0.517648 14.059 0.595897C14.7443 0.674146 15.3931 0.937663 15.9315 1.35642L24.8756 8.52274C25.2263 8.79376 25.5096 9.13807 25.7043 9.53004C25.899 9.92201 26.0001 10.3515 26.0001 10.7867C26.0001 11.2218 25.899 11.6514 25.7043 12.0433C25.5096 12.4353 25.2263 12.7796 24.8756 13.0506L15.9315 20.217C15.2868 20.7244 14.4817 21.0009 13.6517 21Z" fill="white"/>
<path d="M9.33074 19.1429C8.8772 19.1403 8.42933 19.0454 8.01647 18.8643C7.56994 18.6745 7.18951 18.3648 6.9206 17.9721C6.65169 17.5795 6.50568 17.1204 6.5 16.6499V4.92319C6.50568 4.45265 6.65169 3.99364 6.9206 3.60096C7.18951 3.20829 7.56994 2.89856 8.01647 2.70876C8.53025 2.47474 9.10187 2.3846 9.66619 2.44862C10.2305 2.51264 10.7648 2.72825 11.2083 3.07087L18.574 8.93422C18.8628 9.15597 19.0961 9.43767 19.2564 9.75838C19.4167 10.0791 19.5 10.4305 19.5 10.7865C19.5 11.1426 19.4167 11.494 19.2564 11.8147C19.0961 12.1354 18.8628 12.4171 18.574 12.6389L11.2083 18.5022C10.6773 18.9174 10.0143 19.1437 9.33074 19.1429Z" fill="#F5F5F5"/>
<rect y="7.07141" width="10.2143" height="7.42857" fill="#F5F5F5"/>
</svg>
