<svg width="22" height="23" viewBox="0 0 22 23" fill="none" xmlns="http://www.w3.org/2000/svg">
<path d="M14.96 9.67033C14.96 10.192 14.8052 10.7019 14.5151 11.1356C14.225 11.5693 13.8127 11.9073 13.3303 12.1069C12.8479 12.3066 12.3171 12.3588 11.805 12.257C11.2929 12.1553 10.8224 11.9041 10.4532 11.5352C10.084 11.1664 9.83259 10.6965 9.73073 10.1849C9.62886 9.67325 9.68114 9.14297 9.88096 8.66105C10.0808 8.17914 10.4191 7.76724 10.8533 7.47744C11.2874 7.18765 11.7979 7.03297 12.32 7.03297C13.0199 7.03375 13.691 7.31187 14.1859 7.8063C14.6808 8.30073 14.9592 8.9711 14.96 9.67033ZM22 1.75824V21.0989C21.9995 21.5651 21.8139 22.012 21.4839 22.3416C21.154 22.6712 20.7066 22.8566 20.24 22.8571H4.4C3.93338 22.8566 3.48602 22.6712 3.15607 22.3416C2.82612 22.012 2.64052 21.5651 2.64 21.0989V18.9011H0.88C0.646609 18.9011 0.422778 18.8085 0.257746 18.6436C0.092714 18.4787 0 18.2551 0 18.022C0 17.7888 0.092714 17.5652 0.257746 17.4003C0.422778 17.2355 0.646609 17.1429 0.88 17.1429H2.64V14.5055H0.88C0.646609 14.5055 0.422778 14.4129 0.257746 14.248C0.092714 14.0831 0 13.8595 0 13.6264C0 13.3932 0.092714 13.1696 0.257746 13.0047C0.422778 12.8399 0.646609 12.7473 0.88 12.7473H2.64V10.1099H0.88C0.646609 10.1099 0.422778 10.0173 0.257746 9.8524C0.092714 9.68753 0 9.46393 0 9.23077C0 8.99761 0.092714 8.774 0.257746 8.60914C0.422778 8.44427 0.646609 8.35165 0.88 8.35165H2.64V5.71429H0.88C0.646609 5.71429 0.422778 5.62166 0.257746 5.4568C0.092714 5.29193 0 5.06832 0 4.83516C0 4.60201 0.092714 4.3784 0.257746 4.21353C0.422778 4.04867 0.646609 3.95604 0.88 3.95604H2.64V1.75824C2.64052 1.29209 2.82612 0.845176 3.15607 0.515555C3.48602 0.185934 3.93338 0.00052354 4.4 0H20.24C20.7066 0.00052354 21.154 0.185934 21.4839 0.515555C21.8139 0.845176 21.9995 1.29209 22 1.75824ZM18.3037 15.2957C17.5238 14.2518 16.4836 13.4303 15.2868 12.9133C15.942 12.3156 16.4011 11.534 16.6037 10.6711C16.8064 9.80813 16.7431 8.90414 16.4223 8.07775C16.1014 7.25135 15.538 6.54116 14.8059 6.04038C14.0738 5.5396 13.2073 5.27162 12.32 5.27162C11.4327 5.27162 10.5662 5.5396 9.83411 6.04038C9.10202 6.54116 8.53859 7.25135 8.21775 8.07775C7.8969 8.90414 7.83365 9.80813 8.03628 10.6711C8.23891 11.534 8.69796 12.3156 9.35319 12.9133C8.15631 13.4304 7.11604 14.2519 6.33611 15.2959C6.2667 15.3882 6.21617 15.4933 6.1874 15.6051C6.15864 15.7169 6.1522 15.8333 6.16845 15.9476C6.20128 16.1785 6.32456 16.3868 6.51117 16.5269C6.69778 16.6669 6.93244 16.7272 7.16351 16.6944C7.39459 16.6616 7.60316 16.5384 7.74334 16.352C8.27622 15.6422 8.96719 15.0661 9.76154 14.6694C10.5559 14.2726 11.4318 14.066 12.3199 14.066C13.208 14.066 14.0839 14.2725 14.8783 14.6693C15.6726 15.066 16.3636 15.642 16.8965 16.3518C16.9656 16.445 17.0525 16.5236 17.1521 16.5831C17.2517 16.6427 17.3621 16.6819 17.477 16.6986C17.5919 16.7153 17.7089 16.7092 17.8214 16.6805C17.9339 16.6518 18.0396 16.6012 18.1324 16.5315C18.2252 16.4619 18.3033 16.3746 18.3622 16.2746C18.4211 16.1747 18.4596 16.0641 18.4755 15.9492C18.4914 15.8344 18.4844 15.7175 18.455 15.6053C18.4255 15.4932 18.374 15.3879 18.3037 15.2957Z" fill="#345EDD"/>
</svg>
