<svg width="22" height="15" viewBox="0 0 22 15" fill="none" xmlns="http://www.w3.org/2000/svg">
<path d="M1.03125 0C0.757745 0 0.495443 0.108649 0.302046 0.302046C0.108649 0.495443 0 0.757745 0 1.03125C0 1.30475 0.108649 1.56706 0.302046 1.76045C0.495443 1.95385 0.757745 2.0625 1.03125 2.0625H20.9688C21.2423 2.0625 21.5046 1.95385 21.698 1.76045C21.8914 1.56706 22 1.30475 22 1.03125C22 0.757745 21.8914 0.495443 21.698 0.302046C21.5046 0.108649 21.2423 0 20.9688 0H1.03125Z" fill="#345EDD"/>
<path d="M1.03125 4.125C0.757745 4.125 0.495443 4.23365 0.302046 4.42705C0.108649 4.62044 0 4.88275 0 5.15625C0 5.42975 0.108649 5.69206 0.302046 5.88545C0.495443 6.07885 0.757745 6.1875 1.03125 6.1875H20.9688C21.2423 6.1875 21.5046 6.07885 21.698 5.88545C21.8914 5.69206 22 5.42975 22 5.15625C22 4.88275 21.8914 4.62044 21.698 4.42705C21.5046 4.23365 21.2423 4.125 20.9688 4.125H1.03125Z" fill="#345EDD"/>
<path d="M0 9.28125C0 9.00775 0.108649 8.74544 0.302046 8.55205C0.495443 8.35865 0.757745 8.25 1.03125 8.25H20.9688C21.2423 8.25 21.5046 8.35865 21.698 8.55205C21.8914 8.74544 22 9.00775 22 9.28125C22 9.55475 21.8914 9.81706 21.698 10.0105C21.5046 10.2039 21.2423 10.3125 20.9688 10.3125H1.03125C0.757745 10.3125 0.495443 10.2039 0.302046 10.0105C0.108649 9.81706 0 9.55475 0 9.28125Z" fill="#345EDD"/>
<path d="M1.03125 12.375C0.757745 12.375 0.495443 12.4836 0.302046 12.677C0.108649 12.8704 0 13.1327 0 13.4062C0 13.6798 0.108649 13.9421 0.302046 14.1355C0.495443 14.3289 0.757745 14.4375 1.03125 14.4375H14.0938C14.3673 14.4375 14.6296 14.3289 14.823 14.1355C15.0164 13.9421 15.125 13.6798 15.125 13.4062C15.125 13.1327 15.0164 12.8704 14.823 12.677C14.6296 12.4836 14.3673 12.375 14.0938 12.375H1.03125Z" fill="#345EDD"/>
</svg>
