<svg width="22" height="22" viewBox="0 0 22 22" fill="none" xmlns="http://www.w3.org/2000/svg">
<path d="M9.55419 5.19068L6.1712 1.25109C5.78121 0.797106 5.06621 0.799124 4.61321 1.25715L1.83123 4.06883C1.00323 4.90517 0.766233 6.14707 1.24523 7.14281C4.10683 13.1203 8.88524 17.9478 14.8062 20.8431C15.7922 21.3263 17.0221 21.0872 17.8501 20.2509L20.6581 17.413C21.1131 16.9539 21.1141 16.2286 20.6601 15.8351L16.7401 12.4403C16.3301 12.0852 15.6932 12.1316 15.2822 12.5473L13.9182 13.9254C13.8483 13.9992 13.7564 14.0479 13.6565 14.0639C13.5566 14.0799 13.4543 14.0625 13.3652 14.0141C11.1356 12.7189 9.28618 10.8506 8.00519 8.5996C7.95722 8.50956 7.93985 8.40613 7.95575 8.30517C7.97164 8.20422 8.01993 8.11131 8.09319 8.0407L9.45319 6.66764C9.86518 6.24998 9.91018 5.60431 9.55419 5.18967V5.19068Z" fill="white" stroke="white" stroke-linecap="round" stroke-linejoin="round"/>
</svg>
