<svg width="26" height="13" viewBox="0 0 26 13" fill="none" xmlns="http://www.w3.org/2000/svg">
<path d="M13 7.3125C14.7658 7.3125 16.3258 7.735 17.5933 8.2875C18.7633 8.8075 19.5 9.9775 19.5 11.245V11.9167C19.5 12.5125 19.0125 13 18.4167 13H7.58333C6.9875 13 6.5 12.5125 6.5 11.9167V11.2558C6.5 9.9775 7.23667 8.8075 8.40667 8.29833C9.67417 7.735 11.2342 7.3125 13 7.3125ZM4.33333 7.58333C5.525 7.58333 6.5 6.60833 6.5 5.41667C6.5 4.225 5.525 3.25 4.33333 3.25C3.14167 3.25 2.16667 4.225 2.16667 5.41667C2.16667 6.60833 3.14167 7.58333 4.33333 7.58333ZM5.5575 8.775C5.15667 8.71 4.75583 8.66667 4.33333 8.66667C3.26083 8.66667 2.2425 8.89417 1.32167 9.295C0.929189 9.46276 0.594667 9.74217 0.359686 10.0985C0.124705 10.4548 -0.000372327 10.8723 8.32535e-07 11.2992V11.9167C8.32535e-07 12.5125 0.487501 13 1.08333 13H4.875V11.2558C4.875 10.3567 5.12417 9.51167 5.5575 8.775V8.775ZM21.6667 7.58333C22.8583 7.58333 23.8333 6.60833 23.8333 5.41667C23.8333 4.225 22.8583 3.25 21.6667 3.25C20.475 3.25 19.5 4.225 19.5 5.41667C19.5 6.60833 20.475 7.58333 21.6667 7.58333ZM26 11.2992C26 10.4217 25.48 9.64167 24.6783 9.295C23.7284 8.8805 22.7031 8.66659 21.6667 8.66667C21.2442 8.66667 20.8433 8.71 20.4425 8.775C20.8758 9.51167 21.125 10.3567 21.125 11.2558V13H24.9167C25.5125 13 26 12.5125 26 11.9167V11.2992ZM13 0C14.7983 0 16.25 1.45167 16.25 3.25C16.25 5.04833 14.7983 6.5 13 6.5C11.2017 6.5 9.75 5.04833 9.75 3.25C9.75 1.45167 11.2017 0 13 0Z" fill="white"/>
</svg>
