<svg width="17" height="13" viewBox="0 0 17 13" fill="none" xmlns="http://www.w3.org/2000/svg">
<path d="M16.3929 0H0.607143C0.271317 0 0 0.264062 0 0.590909V12.4091C0 12.7359 0.271317 13 0.607143 13H16.3929C16.7287 13 17 12.7359 17 12.4091V0.590909C17 0.264062 16.7287 0 16.3929 0ZM14.8598 2.01094L8.87377 6.54432C8.72578 6.65696 8.51897 6.65696 8.37098 6.54432L2.38304 2.01094C2.36046 1.99398 2.34391 1.97058 2.33569 1.94401C2.32747 1.91743 2.328 1.88903 2.3372 1.86276C2.34641 1.8365 2.36383 1.81369 2.38702 1.79755C2.41021 1.7814 2.43801 1.77272 2.46652 1.77273H14.7763C14.8049 1.77272 14.8327 1.7814 14.8558 1.79755C14.879 1.81369 14.8965 1.8365 14.9057 1.86276C14.9149 1.88903 14.9154 1.91743 14.9072 1.94401C14.8989 1.97058 14.8824 1.99398 14.8598 2.01094Z" fill="#2D3650"/>
</svg>
