<svg width="16" height="17" viewBox="0 0 16 17" fill="none" xmlns="http://www.w3.org/2000/svg">
<path d="M0.666722 7.16589C0.489896 7.16589 0.320313 7.09565 0.195279 6.97061C0.0702439 6.84558 0 6.67599 0 6.49917V1.16672C0 0.989897 0.0702439 0.820313 0.195279 0.695279C0.320313 0.570244 0.489896 0.5 0.666722 0.5H6.0005C6.17733 0.5 6.34691 0.570244 6.47194 0.695279C6.59698 0.820313 6.66722 0.989897 6.66722 1.16672V6.49917C6.66722 6.67599 6.59698 6.84558 6.47194 6.97061C6.34691 7.09565 6.17733 7.16589 6.0005 7.16589H0.666722ZM10.0008 7.16589C9.82401 7.16589 9.65442 7.09565 9.52939 6.97061C9.40435 6.84558 9.33411 6.67599 9.33411 6.49917V1.16672C9.33411 0.989897 9.40435 0.820313 9.52939 0.695279C9.65442 0.570244 9.82401 0.5 10.0008 0.5H15.3333C15.5101 0.5 15.6797 0.570244 15.8047 0.695279C15.9298 0.820313 16 0.989897 16 1.16672V6.49917C16 6.67599 15.9298 6.84558 15.8047 6.97061C15.6797 7.09565 15.5101 7.16589 15.3333 7.16589H10.0008ZM0.666722 16.5C0.489896 16.5 0.320313 16.4298 0.195279 16.3047C0.0702439 16.1797 0 16.0101 0 15.8333V10.4995C0 10.3227 0.0702439 10.1531 0.195279 10.0281C0.320313 9.90302 0.489896 9.83278 0.666722 9.83278H6.0005C6.17733 9.83278 6.34691 9.90302 6.47194 10.0281C6.59698 10.1531 6.66722 10.3227 6.66722 10.4995V15.8333C6.66722 16.0101 6.59698 16.1797 6.47194 16.3047C6.34691 16.4298 6.17733 16.5 6.0005 16.5H0.666722ZM10.0008 16.5C9.82401 16.5 9.65442 16.4298 9.52939 16.3047C9.40435 16.1797 9.33411 16.0101 9.33411 15.8333V10.4995C9.33411 10.3227 9.40435 10.1531 9.52939 10.0281C9.65442 9.90302 9.82401 9.83278 10.0008 9.83278H15.3333C15.5101 9.83278 15.6797 9.90302 15.8047 10.0281C15.9298 10.1531 16 10.3227 16 10.4995V15.8333C16 16.0101 15.9298 16.1797 15.8047 16.3047C15.6797 16.4298 15.5101 16.5 15.3333 16.5H10.0008Z" fill="white"/>
</svg>
