<svg width="20" height="27" viewBox="0 0 20 27" fill="none" xmlns="http://www.w3.org/2000/svg">
<g clip-path="url(#clip0_721_10)">
<path d="M0 3.99963V22.6663C0 23.0199 0.140476 23.3591 0.390525 23.6091C0.640573 23.8592 0.979711 23.9996 1.33333 23.9996H5.33333V21.333H2.66667V5.33296H5.33333V2.6663H1.33333C0.979711 2.6663 0.640573 2.80677 0.390525 3.05682C0.140476 3.30687 0 3.64601 0 3.99963ZM18.9893 2.7063L8.32267 0.0396317C8.12616 -0.00938057 7.92106 -0.0129821 7.72295 0.0291006C7.52484 0.0711834 7.33892 0.157844 7.17931 0.282506C7.01969 0.407167 6.89057 0.566553 6.80174 0.748566C6.71292 0.930579 6.66672 1.13043 6.66667 1.33297V25.333C6.6662 25.5357 6.71205 25.7358 6.80072 25.9181C6.88939 26.1004 7.01852 26.26 7.17828 26.3847C7.33803 26.5095 7.52418 26.5961 7.72251 26.638C7.92084 26.6799 8.12612 26.6759 8.32267 26.6263L18.9893 23.9596C19.2779 23.8877 19.5341 23.7213 19.7173 23.4869C19.9004 23.2526 19.9999 22.9637 20 22.6663V3.99963C19.9999 3.70222 19.9004 3.41336 19.7173 3.17902C19.5341 2.94467 19.2779 2.77827 18.9893 2.7063ZM13.3333 13.5836C13.318 13.9269 13.1708 14.2511 12.9224 14.4886C12.6741 14.7261 12.3437 14.8587 12 14.8587C11.6564 14.8587 11.3259 14.7261 11.0776 14.4886C10.8292 14.2511 10.682 13.9269 10.6667 13.5836V13.081C10.6668 12.7273 10.8075 12.3883 11.0577 12.1383C11.3078 11.8884 11.647 11.7481 12.0007 11.7483C12.3543 11.7485 12.6934 11.8891 12.9433 12.1393C13.1932 12.3895 13.3335 12.7287 13.3333 13.0823V13.5836Z" fill="#345EDD"/>
</g>
<defs>
<clipPath id="clip0_721_10">
<rect width="20" height="27" fill="white"/>
</clipPath>
</defs>
</svg>
