<svg width="23" height="22" viewBox="0 0 23 22" fill="none" xmlns="http://www.w3.org/2000/svg">
<g clip-path="url(#clip0_721_6)">
<path d="M1.90056 3.47621L4.74396 0.635437C4.94454 0.433976 5.18294 0.27413 5.44548 0.165081C5.70801 0.0560332 5.98951 -6.81349e-05 6.27379 6.21006e-08C6.85315 6.21006e-08 7.3978 0.226942 7.80629 0.635437L10.866 3.69515C11.0674 3.89573 11.2273 4.13413 11.3363 4.39667C11.4454 4.65921 11.5015 4.94071 11.5014 5.225C11.5014 5.80437 11.2744 6.34903 10.866 6.75752L8.62861 8.9949C9.15232 10.1493 9.88045 11.1994 10.7779 12.0947C11.673 12.9943 12.723 13.725 13.8776 14.2519L16.1149 12.0146C16.3155 11.8131 16.5539 11.6533 16.8164 11.5442C17.079 11.4352 17.3605 11.3791 17.6447 11.3791C18.2241 11.3791 18.7687 11.6061 19.1772 12.0146L22.2396 15.0716C22.4413 15.2726 22.6013 15.5114 22.7103 15.7744C22.8194 16.0374 22.8753 16.3194 22.875 16.6041C22.875 17.1835 22.6481 17.7282 22.2396 18.1367L19.4015 20.9748C18.7501 21.6289 17.8503 22 16.9265 22C16.7316 22 16.5448 21.984 16.3605 21.9519C12.7616 21.3592 9.19195 19.4449 6.31117 16.5667C3.43306 13.6913 1.52144 10.1243 0.920717 6.51456C0.739167 5.41189 1.10494 4.27718 1.90056 3.47621Z" fill="#345EDD"/>
</g>
<defs>
<clipPath id="clip0_721_6">
<rect width="23" height="22" fill="white"/>
</clipPath>
</defs>
</svg>
