<svg width="40" height="41" viewBox="0 0 40 41" fill="none" xmlns="http://www.w3.org/2000/svg">
<path d="M20 0.5C8.9543 0.5 0 9.4543 0 20.5C0 31.5457 8.9543 40.5 20 40.5C31.0457 40.5 40 31.5457 40 20.5C40 9.4543 31.0457 0.5 20 0.5ZM12.8125 8.44433C13.2246 8.42003 13.597 8.66633 13.8794 9.1035L16.6138 14.289C16.9017 14.9035 16.7381 15.5614 16.3086 16.0005L15.0562 17.2529C14.9789 17.3588 14.928 17.4781 14.9268 17.6093C15.4071 19.4685 16.864 21.1834 18.1495 22.3628C19.4349 23.5421 20.8164 25.1388 22.6099 25.5171C22.8315 25.5789 23.1031 25.6011 23.2617 25.4536L24.7168 23.9717C25.2191 23.591 25.9457 23.4065 26.4819 23.7178H26.5063L31.4404 26.6304C32.1646 27.0844 32.2397 27.9619 31.7211 28.4956L28.3228 31.8672C27.8209 32.3819 27.1542 32.5549 26.5064 32.5557C23.6415 32.4698 20.9345 31.0637 18.711 29.6187C15.0613 26.9636 11.7136 23.6705 9.61183 19.6919C8.80577 18.0236 7.85887 15.8949 7.94923 14.0328C7.9573 13.3322 8.14683 12.6459 8.64017 12.1944L12.0386 8.79597C12.3033 8.5707 12.5652 8.45893 12.8125 8.44433V8.44433Z" fill="#2D3650"/>
</svg>
