<svg width="55" height="55" viewBox="0 0 55 55" fill="none" xmlns="http://www.w3.org/2000/svg">
<rect width="55" height="55" rx="27.5" fill="#1B2093"/>
<path d="M25.9104 12.215C26.3175 11.8084 26.8693 11.5801 27.4446 11.5801C28.0199 11.5801 28.5717 11.8084 28.9788 12.215L36.9393 20.1755C37.1527 20.3743 37.3237 20.614 37.4424 20.8803C37.5611 21.1466 37.6249 21.4341 37.63 21.7256C37.6352 22.0171 37.5815 22.3067 37.4723 22.577C37.3631 22.8473 37.2006 23.0929 36.9945 23.2991C36.7883 23.5052 36.5427 23.6678 36.2724 23.7769C36.0021 23.8861 35.7125 23.9398 35.421 23.9346C35.1295 23.9295 34.842 23.8657 34.5757 23.747C34.3094 23.6283 34.0697 23.4573 33.8709 23.244L29.6157 18.9887V44.144C29.6157 44.7198 29.3869 45.272 28.9798 45.6791C28.5726 46.0863 28.0204 46.315 27.4446 46.315C26.8688 46.315 26.3166 46.0863 25.9094 45.6791C25.5023 45.272 25.2736 44.7198 25.2736 44.144V18.9887L21.0183 23.244C20.6067 23.6275 20.0624 23.8362 19.4999 23.8263C18.9375 23.8164 18.4008 23.5885 18.0031 23.1908C17.6053 22.793 17.3774 22.2563 17.3675 21.6939C17.3576 21.1314 17.5664 20.5871 17.9499 20.1755L25.9104 12.215V12.215Z" fill="white"/>
</svg>
