<svg width="45" height="45" viewBox="0 0 45 45" fill="none" xmlns="http://www.w3.org/2000/svg">
<circle cx="22.5" cy="22.5" r="22.5" fill="#48C95F"/>
<path d="M31.4176 13.5702C29.195 11.3553 26.2316 10.1249 23.1036 10.1249C16.6005 10.1249 11.3322 15.3749 11.3322 21.8553C11.3322 23.9061 11.9084 25.9569 12.8962 27.6796L11.2499 33.7499L17.506 32.1093C19.2347 33.0116 21.128 33.5038 23.1036 33.5038C29.6066 33.5038 34.8749 28.2538 34.8749 21.7733C34.7926 18.7382 33.6401 15.785 31.4176 13.5702ZM28.7834 26.0389C28.5365 26.6952 27.3841 27.3514 26.8078 27.4335C26.3139 27.5155 25.6554 27.5155 24.9969 27.3514C24.5853 27.1874 24.0091 27.0233 23.3505 26.6952C20.3871 25.4647 18.4938 22.5116 18.3292 22.2655C18.1645 22.1014 17.0944 20.7069 17.0944 19.2303C17.0944 17.7538 17.8353 17.0975 18.0822 16.7694C18.3292 16.4413 18.6584 16.4413 18.9054 16.4413C19.07 16.4413 19.317 16.4413 19.4816 16.4413C19.6462 16.4413 19.8932 16.3593 20.1402 16.9335C20.3871 17.5077 20.9633 18.9843 21.0456 19.0663C21.128 19.2303 21.128 19.3944 21.0456 19.5585C20.9633 19.7225 20.881 19.8866 20.7164 20.0507C20.5517 20.2147 20.3871 20.4608 20.3048 20.5428C20.1401 20.7069 19.9755 20.871 20.1402 21.1171C20.3048 21.4452 20.881 22.3475 21.7865 23.1678C22.9389 24.1522 23.8444 24.4803 24.1737 24.6444C24.503 24.8085 24.6676 24.7264 24.8322 24.5624C24.9969 24.3983 25.5731 23.7421 25.7377 23.4139C25.9023 23.0858 26.1493 23.1678 26.3962 23.2499C26.6432 23.3319 28.1249 24.0702 28.3719 24.2343C28.7011 24.3983 28.8658 24.4803 28.9481 24.5624C29.0304 24.8085 29.0304 25.3827 28.7834 26.0389Z" fill="white"/>
</svg>
