<svg width="1440" height="469" viewBox="0 0 1440 469" fill="none" xmlns="http://www.w3.org/2000/svg">
<path fill-rule="evenodd" clip-rule="evenodd" d="M878.043 4.3777C873.808 6.83535 868.4 10.2519 866.023 11.9685C863.646 13.6851 861.335 15.0909 860.885 15.0909C860.436 15.0909 858.968 12.7498 857.622 9.88695C854.88 4.05714 850.6 2.5251 847.026 6.0957C844.049 9.07097 844.067 20.0423 847.061 27.0641C848.321 30.02 849.467 35.9289 849.605 40.1975C849.758 44.8269 850.794 49.2912 852.176 51.2618C853.521 53.1796 854.492 57.2345 854.492 60.9328C854.492 67.8062 852.6 70.0001 841.992 75.4358C839.318 76.8055 836.818 78.3459 836.436 78.8579C836.054 79.3714 832.254 80.5537 827.992 81.4863C822.104 82.7755 819.05 84.4213 815.282 88.3402C805.55 98.4609 789.218 127.094 789.216 134.041C789.214 135.731 787.339 139.031 785.048 141.373C781.317 145.185 780.881 146.541 780.881 154.301C780.881 162.819 781.003 163.098 787.887 170.309C793.146 175.819 796.175 177.845 800.039 178.441C805.628 179.301 812.143 182.167 813.502 184.363C813.971 185.121 812.688 188.582 810.652 192.054L806.949 198.368L806.513 243.393C806.274 268.155 805.681 289.058 805.196 289.844C804.71 290.629 804.716 292.539 805.207 294.088C806.391 297.812 809.999 321.19 811.41 334.266C812.028 339.991 813.186 348.421 813.984 353C816.488 367.374 816.41 378.758 813.735 389.266L811.217 399.164L815.636 411.469C821.579 428.012 821.765 429.142 819.745 436.354C818.114 442.171 818.206 442.837 821.045 445.855C825.797 450.911 834.363 451.481 841.644 447.228C846.958 444.124 847.547 443.249 847.547 438.474C847.547 435.402 848.639 431.776 850.14 429.859C853.594 425.45 854.95 398.073 852.228 387.724C850.057 379.478 851.893 323.64 855.242 296.044C856.357 286.853 857.269 276.742 857.269 273.576C857.269 267.942 859.462 264.304 860.683 267.915C863.411 275.979 867.058 379.361 864.747 383.097C864.409 383.643 864.079 393.2 864.011 404.335C863.908 421.158 864.268 425.002 866.135 427.063C867.369 428.427 868.38 431.513 868.38 433.922C868.38 436.759 869.751 439.834 872.273 442.654C876.002 446.825 876.473 446.964 883.534 445.994C893.634 444.606 896.605 441.455 895.768 433.016C895.415 429.46 894.676 425.205 894.126 423.56C893.363 421.283 893.78 420.364 895.88 419.7C900.415 418.261 904.831 406.07 904.147 396.876C903.306 385.601 906.908 330.94 908.94 324.107C909.916 320.825 910.816 308.67 911.012 296.104C911.204 283.892 911.644 258.601 911.991 239.901C912.572 208.655 912.399 205.236 909.859 197.667C905.848 185.714 907.751 181.707 917.476 181.637C922.024 181.602 929.559 177.185 931.516 173.403C935.173 166.338 935.401 160.531 932.295 153.535C928.602 145.216 924.005 124.617 923.966 116.217C923.933 109.263 921.566 102.531 916.124 93.9189C913.381 89.5767 910.201 87.255 900.877 82.7838C886.652 75.9646 885.09 73.7969 889.391 66.8431C891.102 64.076 892.866 59.5825 893.309 56.8584C894.019 52.4996 894.695 51.8085 898.957 51.0883C904.162 50.2099 914.876 45.1433 916.259 42.9063C917.204 41.3784 913.452 40.2988 905.279 39.7465L899.815 39.376L900.172 23.1313L900.529 6.8867L895.736 4.88561C893.098 3.78515 890.516 2.19621 889.995 1.35525C888.536 -1.00387 886.375 -0.457111 878.043 4.3777ZM46.2269 18.1175C40.2866 25.5723 37.7505 35.1184 40.2755 40.5292C41.0477 42.1847 41.7172 45.0143 41.7644 46.8169C41.8102 48.6196 42.7755 51.1175 43.9074 52.3678C46.0727 54.7588 46.1644 55.0489 46.1644 59.527C46.1644 61.1729 47.5991 62.9866 49.6366 63.9136C54.1393 65.9633 54.3282 72.1317 50.0116 76.1505C46.5866 79.3381 44.6255 79.9029 34.1714 80.7119C23.0395 81.5723 17.041 85.401 11.8132 94.9832C9.3438 99.5086 6.74382 105.084 6.03271 107.374C5.323 109.664 1.56609 120.592 -2.31722 131.659C-9.96994 153.471 -10.4199 156.176 -7.37135 162.066C-5.27276 166.122 -0.533899 167.666 10.0535 167.745C12.7271 167.766 15.7313 168.301 16.7299 168.932C19.4062 170.629 17.8048 185.543 13.5063 198.964C8.7063 213.948 7.85771 219.673 3.02025 269.737C1.47026 285.765 -0.95889 306.061 -2.37971 314.838C-7.25329 344.929 -7.23663 342.592 -2.57833 342.592C-0.340847 342.592 1.69665 343.202 1.9522 343.947C2.20637 344.691 5.85216 345.569 10.0535 345.899C22.4895 346.875 23.8493 347.637 22.959 353.124C22.5382 355.716 22.934 363.618 23.8381 370.684C25.3312 382.337 25.7465 392.159 25.5381 410.881C25.4979 414.486 23.877 421.38 21.9257 426.255C17.9104 436.283 17.8187 436.97 19.8937 441.52C23.4826 449.39 35.7158 452.031 40.1852 445.9C42.6727 442.489 42.9283 442.436 46.8977 444.504C52.7574 447.557 56.8837 447.189 60.8101 443.265C65.4212 438.657 65.4114 431.622 60.7879 427.281C52.5546 419.553 52.8726 406.611 61.9809 378.673C65.5878 367.606 68.8989 355.336 69.3378 351.407C70.2753 342.999 72.8142 341.205 83.7724 341.205C88.5432 341.205 90.9362 340.579 91.4696 339.19C91.8987 338.071 95.0195 336.759 98.4862 336.24C104.01 335.412 104.633 334.964 103.9 332.357C101.822 324.981 98.8334 284.915 98.2181 256.206C97.332 214.803 95.607 202.867 87.971 185.318C86.3654 181.63 85.053 177.726 85.053 176.645C85.053 173.685 87.5182 174.283 88.5363 177.491C89.8585 181.652 95.5042 184.859 99.6695 183.814C104.611 182.575 108.937 175.127 107.796 169.822C107.304 167.532 106.829 152.857 106.74 137.21C106.607 113.516 106.208 108.237 104.353 105.62C102.078 102.41 88.9904 92.6893 84.7641 91.0685C83.4752 90.5745 81.3224 88.1085 79.9808 85.5884C76.6989 79.4241 77.0113 58.8471 80.4433 55.0558C82.1446 53.1782 82.8683 49.0511 83.2641 38.9541L83.7974 25.378L78.8058 18.8461C76.0614 15.2546 73.3739 12.2266 72.8364 12.1184C72.2989 12.0115 67.3239 11.7701 61.7809 11.5841L51.7032 11.2455L46.2269 18.1175ZM1418.04 13.6449C1416.66 15.2727 1413.94 16.4786 1411.66 16.4786C1406.44 16.4786 1403.03 20.4419 1403.2 26.3203C1403.28 28.9209 1402.74 33.7238 1402.01 36.9905C1401.04 41.3257 1401.18 44.3273 1402.52 48.0922C1403.54 50.9315 1404.39 54.8934 1404.43 56.8973C1404.46 58.9012 1405.98 63.897 1407.8 67.9991C1410.31 73.6637 1412.15 75.8452 1415.43 77.0706C1419.39 78.5457 1419.77 79.2174 1419.77 84.8543C1419.77 90.0874 1418.91 91.9927 1414.15 97.3965C1410.34 101.723 1407.88 106.279 1406.5 111.583C1403.52 123.035 1402.77 123.88 1393.14 126.74C1388.3 128.175 1383.41 129.916 1382.27 130.61C1381 131.378 1378.79 131.339 1376.62 130.509C1373.08 129.159 1372.28 127.027 1369.2 110.843C1365.22 89.9764 1363.28 86.1837 1354.14 81.5251C1348.64 78.7178 1347.63 76.181 1350.94 73.4389C1352.04 72.523 1353.65 68.3807 1354.51 64.2342C1355.4 59.9461 1357.65 54.8324 1359.72 52.3747C1363.06 48.4017 1363.17 47.9174 1361 46.3381C1359.66 45.3543 1358.65 42.7537 1358.65 40.2488C1358.65 33.6835 1353.45 23.8613 1348.28 20.6681C1336.2 13.205 1314.21 23.3825 1314.21 36.4382C1314.21 38.5447 1313.27 41.205 1312.13 42.3512C1310.01 44.462 1310.5 50.4541 1313 53.1838C1314.82 55.164 1314.45 63.1184 1312.47 64.756C1311.52 65.5456 1307.3 67.5508 1303.1 69.2119C1298.9 70.8744 1292.34 73.4694 1288.52 74.9807C1284.7 76.4905 1278.58 78.6526 1274.92 79.785C1269.67 81.4072 1267.86 82.7796 1266.35 86.2822C1262.57 95.0707 1260.97 110.188 1261.87 128.849C1262.49 141.881 1262.29 146.924 1261.16 146.924C1259.74 146.924 1246.27 135.664 1235.74 125.668C1230.68 120.87 1217.82 115.766 1206.67 114.131C1202.15 113.468 1198.21 112.201 1197.92 111.317C1197.63 110.433 1199.87 107.263 1202.89 104.273C1208.32 98.9008 1208.37 98.7578 1207.12 92.0607C1206.42 88.3347 1205.23 84.6656 1204.48 83.9093C1203.72 83.1529 1203.1 80.5815 1203.1 78.196C1203.1 70.6232 1194.53 65.0488 1182.88 65.0488C1177.26 65.0488 1176.37 65.5497 1172.55 70.8078C1170.26 73.976 1168.38 77.0498 1168.38 77.6395C1168.38 78.2293 1166.5 80.5857 1164.21 82.8754C1161.53 85.5565 1160.04 88.4485 1160.04 91.0005C1160.04 95.5106 1163.47 101.129 1166.21 101.129C1169.35 101.129 1172.54 107.671 1172.54 114.094C1172.54 120.069 1172.39 120.286 1165.95 123.093C1158.41 126.38 1153.67 132.464 1151.24 141.977C1150.35 145.452 1149.09 148.455 1148.43 148.65C1147.76 148.846 1146.2 146.364 1144.95 143.134C1142.64 137.159 1127.54 120.247 1118.24 113.218C1113.85 109.908 1101.83 105.619 1090.4 103.286C1085.35 102.256 1081.05 94.6613 1081.42 87.4327C1081.58 84.3339 1082.15 81.36 1082.68 80.8243C1084.27 79.234 1083.79 73.3751 1081.75 69.4256C1080.7 67.3996 1078.85 63.4237 1077.63 60.5914C1076.12 57.0846 1073.65 54.5368 1069.87 52.612C1062.92 49.072 1060.99 49.0775 1054.6 52.6634C1047.97 56.3852 1045.76 60.0932 1045.48 67.9047C1045.36 71.3865 1044.89 74.8266 1044.45 75.5482C1042.95 77.9601 1045.04 84.3769 1047.58 85.1832C1051.3 86.3613 1053.66 94.0382 1051.17 96.8483C1050.1 98.0584 1049 100.269 1048.72 101.762C1048.39 103.597 1044.32 106.381 1036.18 110.358C1025.3 115.664 1023.58 117.063 1018.52 124.676C1014.7 130.414 1012.62 135.32 1011.99 140.019C1011.49 143.817 1010.38 146.921 1009.52 146.919C1008.66 146.916 1005.86 145.635 1003.3 144.072C998.924 141.408 998.774 141.075 1000.9 138.727C1002.21 137.28 1002.78 135.227 1002.26 133.86C1001.64 132.253 1002.81 130.077 1005.9 127.067C1008.41 124.632 1011.31 120.766 1012.36 118.476C1013.4 116.186 1014.77 113.376 1015.41 112.231C1019.01 105.723 1019.77 103.53 1019.77 99.6279C1019.77 90.9325 1012.9 84.098 999.629 79.5893C990.596 76.521 986.053 76.6903 980.181 80.3164C976.193 82.7783 974.913 84.8654 972.577 92.7004C971.032 97.8822 969.768 104.942 969.768 108.386C969.768 113.996 970.277 114.993 974.646 117.95C980.839 122.142 980.442 125.276 973.645 125.841C970.071 126.139 968.263 127.063 967.682 128.892C966.81 131.638 965.452 132.245 956.978 133.671C948.358 135.123 942.52 146.05 938.776 167.74C934.884 190.281 934.248 204.251 935.32 243.561C935.692 257.253 936.076 259.311 938.676 261.601C940.402 263.121 942.645 268.19 944.119 273.9C945.498 279.243 947.72 285.176 949.055 287.084C950.389 288.992 952.505 296.753 953.753 304.333C955.002 311.911 956.377 318.684 956.809 319.38C958.607 322.289 958.507 335.397 956.642 341.205C949.338 363.937 945.92 375.343 944.101 383.051C942.958 387.895 939.928 397.373 937.369 404.116C933.105 415.348 932.831 416.976 934.102 423.544C934.865 427.486 936.663 432.232 938.099 434.09C939.887 436.404 940.445 438.673 939.871 441.286C938.919 445.621 942.174 448.491 949.864 450.089C955.727 451.309 965.22 446.614 965.849 442.184C966.225 439.543 967.103 439.063 971.341 439.183C974.114 439.262 979.156 440.667 982.543 442.306C989.128 445.49 1001.56 446.33 1007.68 444.003C1014.72 441.329 1013.41 434.118 1005.4 431.477C1002.73 430.599 1000.06 428.467 999.17 426.509C998.31 424.623 997.011 423.08 996.286 423.08C995.513 423.08 994.935 414.138 994.889 401.473C994.824 383.31 995.253 378.614 997.582 371.993C1000.76 362.945 1001.48 350.511 998.988 347.512C997.622 345.869 997.972 343.328 1000.76 334.662C1005.89 318.682 1005.92 318.523 1007.32 297.492C1009.04 271.425 1010.09 260.211 1010.87 259.435C1011.22 259.08 1013.53 261.253 1015.99 264.264C1018.45 267.274 1021.87 271.058 1023.59 272.672C1027.12 275.988 1027.41 277.675 1025.1 281.368C1024.13 282.932 1023.95 284.965 1024.66 286.554C1025.3 287.99 1025.66 293.537 1025.46 298.879C1025.26 304.222 1026.01 314.214 1027.13 321.083C1029.39 334.931 1029.24 357 1026.79 373.122C1024.84 385.896 1026.16 405.739 1029.63 415.838C1032.14 423.152 1031.96 426.089 1028.76 430.019C1027.83 431.164 1026.66 434.337 1026.17 437.073C1025.39 441.474 1025.69 442.231 1028.84 443.664C1033.21 445.654 1039.65 445.724 1046.39 443.856C1052.04 442.286 1057.42 435.015 1056.97 429.548C1056.82 427.815 1058.17 424.031 1059.96 421.139L1063.21 415.882L1059.47 408.033C1056.14 401.049 1055.71 398.498 1055.62 384.918C1055.53 373.301 1056.08 368.326 1057.92 364.102C1059.47 360.536 1060.7 352.597 1061.37 341.899C1061.94 332.74 1063.14 323.449 1064.04 321.254C1064.93 319.058 1066 312.501 1066.42 306.682C1066.83 300.864 1067.52 294.543 1067.95 292.635C1069.45 285.999 1072.99 304.863 1072.71 318.002C1072.53 326.85 1073.22 332.648 1075.24 339.172C1076.76 344.112 1078.13 351.119 1078.27 354.741C1078.79 368.107 1076.84 392.149 1074.74 398.157C1071.67 406.966 1071.94 415.555 1075.43 420.455C1077.52 423.392 1078.07 425.622 1077.42 428.588C1076.61 432.231 1077.02 432.904 1081.13 434.779C1083.66 435.935 1087.38 438.213 1089.39 439.842C1092.32 442.211 1095.1 442.844 1103.28 443.004C1113.46 443.201 1113.52 443.183 1113.96 439.398C1114.29 436.488 1113.21 434.508 1109.34 430.964C1104.36 426.409 1104.3 426.223 1105.53 419.462C1106.94 411.693 1106.5 409.203 1103.73 409.203C1099.74 409.203 1099.01 404.468 1102.01 398.03C1104.24 393.247 1105.1 387.795 1105.79 373.816C1106.49 359.906 1107.3 354.664 1109.35 350.919C1111.18 347.577 1112.31 341.732 1112.99 332.185C1113.53 324.552 1114.61 312.702 1115.39 305.851C1116.4 296.998 1116.37 292.872 1115.3 291.581C1112.52 288.227 1113.2 279.732 1116.6 275.528C1120.59 270.584 1120.66 264.682 1116.89 249.561C1115.31 243.217 1113.91 234.575 1113.77 230.358L1113.52 222.692L1123.24 217.262C1128.59 214.276 1134.86 211.653 1137.19 211.434L1141.42 211.035L1143 225.121C1143.87 232.868 1144.24 241.209 1143.83 243.654C1143.17 247.567 1143.52 248.21 1146.71 249.012C1151.21 250.14 1151.34 250.78 1152.38 276.676C1153.56 306.133 1155.47 320.571 1160.14 335.324C1162.38 342.393 1164.21 348.998 1164.21 350.002C1164.21 351.006 1166.01 357.399 1168.2 364.209C1175.58 387.076 1179.38 402.299 1179.92 411.075C1180.29 417.063 1179.97 417.941 1177.04 419.054C1175.23 419.743 1172.04 420.305 1169.95 420.305C1162.63 420.305 1160.33 426.677 1166.25 430.553C1168.25 431.866 1172.56 432.794 1176.66 432.794C1180.51 432.794 1183.66 433.036 1183.66 433.33C1183.66 433.624 1182.72 435.653 1181.58 437.84C1178.08 444.544 1178.82 447.832 1184 448.618C1200.09 451.062 1200.48 451.002 1206.29 445.196C1210.44 441.054 1211.55 439.003 1210.95 436.609C1209.93 432.533 1211.24 430.664 1215.93 429.518C1220.67 428.356 1221.9 424.074 1219.77 416.139C1218.87 412.815 1218.56 407.342 1219.07 403.674C1219.84 398.075 1219.46 396.38 1216.4 391.88C1212.94 386.787 1212.85 386.129 1213.59 370.506C1214 361.642 1214.7 352.515 1215.13 350.225C1215.56 347.935 1216.36 337.319 1216.91 326.634C1217.45 315.948 1219.52 298.463 1221.52 287.778C1223.51 277.092 1225.54 265.385 1226.01 261.763C1226.73 256.285 1227.45 255.034 1230.27 254.327C1233.55 253.504 1233.66 253.09 1233.66 240.658C1233.66 232.001 1234.34 226.474 1235.75 223.636C1237.85 219.435 1262.31 192.175 1264.88 191.17C1266.87 190.39 1265.86 201.445 1262.83 213.535C1258.29 231.661 1258.29 230.76 1262.86 233.461C1266.78 235.773 1266.99 236.364 1267.01 245.184C1267.02 250.902 1268.38 259.274 1270.56 266.962C1273.95 278.884 1274.1 280.964 1273.93 312.757C1273.83 331.074 1274 363.808 1274.31 385.498L1274.87 424.934L1278.06 426.114C1281 427.199 1281.19 427.878 1280.41 434.437C1279.16 444.994 1283.81 452.891 1295.21 459.547L1303.79 464.563L1310.54 462.343C1317.2 460.149 1317.27 460.066 1316.48 455.171C1316.04 452.447 1314.09 447.178 1312.16 443.46C1310.23 439.743 1308.65 435.547 1308.65 434.136C1308.65 432.725 1308.05 431.194 1307.3 430.735C1306.56 430.275 1306 427.585 1306.07 424.755C1306.13 421.926 1305.71 413.154 1305.13 405.263C1303.89 388.401 1306.83 358.679 1308.87 367.571C1309.48 370.243 1309.65 385.302 1309.26 401.038L1308.54 429.647L1313.32 431.914C1318.94 434.579 1321.42 434.754 1323.54 432.635C1324.68 431.497 1326.68 431.656 1331.11 433.24C1337.67 435.589 1347.49 437.741 1357.27 438.975C1364.32 439.866 1372.93 436.506 1373.66 432.574C1374.35 428.878 1368.75 424.874 1361.56 423.921C1352.12 422.671 1345.32 416.439 1342.46 406.428C1341.25 402.23 1340.22 397.546 1340.15 396.02C1339.95 391.487 1346.11 327.888 1348.36 311.369C1349.5 302.973 1351.06 283.972 1351.83 269.146C1353.02 246.436 1353.61 241.914 1355.6 240.451C1357.69 238.91 1357.91 236.038 1357.52 215.146L1357.08 191.578L1360.3 190.49C1362.07 189.892 1366.64 189.327 1370.46 189.234C1374.28 189.141 1379.85 188.55 1382.84 187.92C1387.76 186.884 1388.18 187.014 1387.3 189.309C1385.05 195.145 1379.4 239.435 1380.25 244.477C1381.15 249.807 1381.16 249.811 1386.57 248.898L1391.99 247.983L1392 254.697C1392.01 258.39 1393.89 270.674 1396.19 281.996C1398.48 293.319 1400.98 306.943 1401.74 312.275C1402.5 317.605 1404.29 324.577 1405.74 327.769C1407.65 332.004 1408.17 335.497 1407.65 340.695C1407.26 344.614 1407.7 350.106 1408.62 352.899C1410.4 358.299 1412.86 402.26 1411.48 403.971C1411.02 404.528 1405.36 405.804 1398.89 406.808C1390.35 408.13 1387.13 409.185 1387.13 410.652C1387.13 413.164 1400.53 420.084 1407.58 421.211C1412.41 421.981 1412.82 422.406 1412.82 426.613C1412.82 433.567 1411.54 435.604 1405.33 438.502C1402.19 439.965 1397.69 442.403 1395.33 443.918C1392.97 445.434 1386.1 447.934 1380.08 449.475C1367.01 452.813 1364.49 454.769 1366.38 460.12C1367.92 464.492 1370.36 465.202 1391.37 467.371C1403.74 468.646 1406.24 468.499 1415.34 465.962C1423.06 463.81 1425.95 463.51 1427.41 464.713C1428.61 465.712 1431.58 465.955 1435.47 465.374C1440.78 464.577 1442.04 463.708 1444.69 458.997C1447.45 454.089 1447.61 452.831 1446.23 446.435C1445.39 442.526 1444.88 439.218 1445.08 439.082C1445.29 438.947 1447.96 437.915 1451.01 436.789L1456.57 434.743L1456.08 423.467L1455.58 412.191L1459.55 411.738L1463.51 411.285L1463.05 400.183C1462.8 394.077 1462.03 385.022 1461.35 380.061C1460.66 375.1 1460.09 362.122 1460.07 351.221C1460.05 336.749 1459.48 330.05 1457.95 326.394C1456.8 323.639 1455.8 318.195 1455.74 314.296C1455.52 300.271 1458.82 253.057 1460.11 251.766C1460.84 251.042 1461.43 248.594 1461.43 246.328C1461.43 244.062 1463.22 239.034 1465.4 235.157C1467.59 231.278 1470.83 224.047 1472.59 219.086C1476 209.537 1485.94 194.318 1488.86 194.186C1489.82 194.141 1490.6 195.511 1490.6 197.229C1490.6 198.947 1492.81 204.009 1495.51 208.479C1503.86 222.309 1506.3 227.927 1506.12 232.86C1506.02 235.476 1506.56 238.362 1507.32 239.277C1508.25 240.39 1507.92 246.98 1506.33 259.198C1503.71 279.297 1504.12 283.645 1510.73 305.818C1516.97 326.757 1522.43 359.063 1525.37 392.394C1526.43 404.439 1527.1 407.133 1529.45 408.778C1531 409.862 1532.26 411.761 1532.26 413C1532.26 414.238 1533.03 417.357 1533.96 419.933C1535.45 424.042 1535.28 425.328 1532.63 430.439C1530.96 433.642 1529.42 438.117 1529.19 440.382C1528.84 443.961 1529.34 444.623 1532.96 445.422C1542.07 447.436 1548.33 446.796 1551.29 443.549C1555.91 438.481 1557.75 434.115 1556 432.368C1553.72 430.09 1554.18 428.398 1558.45 423.252L1562.34 418.567L1565.35 423.667C1568.34 428.731 1568.34 428.823 1565.82 436.28C1564.43 440.411 1563.66 444.401 1564.12 445.145C1566.78 449.44 1584.6 451.075 1588.32 447.364C1589.96 445.724 1590.1 444.319 1589 440.772C1588.23 438.292 1587.25 435.12 1586.82 433.721C1586.4 432.322 1587.41 428.763 1589.07 425.81C1592.13 420.364 1592.46 418.144 1592.02 405.734C1591.84 400.814 1592.85 396.38 1595.47 390.497L1599.18 382.199L1598.42 348.171C1598 329.456 1597.02 311.646 1596.23 308.593C1594.61 302.258 1595.81 271.139 1597.83 267.22C1598.8 265.327 1600.09 264.914 1603.02 265.556C1609.97 267.081 1613.8 265.148 1616.31 258.858C1617.57 255.682 1619.56 252.023 1620.73 250.724C1622.6 248.643 1622.66 244.392 1621.28 214.643C1620.42 196.098 1619.45 177.176 1619.12 172.597C1618.8 168.017 1617.9 154.591 1617.12 142.761C1615.15 112.765 1614.34 107.009 1611.72 104.391C1609.12 101.794 1582.5 88.6691 1579.8 88.6511C1576.52 88.6303 1565.6 77.3453 1565.6 73.9718C1565.6 72.2038 1567.25 66.2908 1569.28 60.8301C1571.72 54.2676 1572.46 50.5943 1571.49 49.9934C1570.68 49.4924 1569.61 46.5866 1569.1 43.5363C1568.6 40.4848 1567.89 36.3563 1567.52 34.3608C1567.06 31.8878 1564.55 29.2401 1559.63 26.0344C1547.9 18.4075 1535.31 20.2851 1529.75 30.489C1526.76 35.9747 1528.64 56.2021 1532.93 64.7351C1537.55 73.9246 1537.45 78.8219 1532.53 83.5235C1530.39 85.5745 1528.23 87.2523 1527.72 87.2523C1525.7 87.2523 1499.38 98.9604 1495.79 101.457L1491.95 104.121L1489.54 98.8022C1483.58 85.6633 1475 77.2662 1464.23 74.0204C1460.52 72.9019 1444.76 58.0727 1444.76 55.6983C1444.76 54.9087 1445.71 52.476 1446.86 50.289C1449.34 45.5652 1448.56 33.0022 1445.2 23.6087C1443.43 18.6809 1441.96 17.0948 1437.3 15.0742C1434.15 13.7087 1429.07 12.1906 1426.01 11.7021C1421.46 10.9721 1420.03 11.3205 1418.04 13.6449ZM381.578 22.0683C376.405 23.1452 371.162 25.8873 371.162 27.5165C371.162 28.1896 368.662 31.3411 365.606 34.519C360.551 39.7756 358.258 45.6207 361.249 45.6207C361.909 45.6207 363.547 49.2121 364.888 53.6001C366.23 57.988 368.58 65.6385 370.111 70.5996C371.744 75.8938 374.609 81.4336 377.045 84.0106C381.18 88.3819 381.247 91.4154 377.208 91.4154C374.288 91.4154 358.276 100.497 355.191 103.903C351.884 107.555 349.812 107.462 351.8 103.751C352.662 102.141 353.558 94.3158 353.79 86.3613C354.118 75.0709 353.763 71.4531 352.17 69.8628C351.048 68.7415 349.484 67.8242 348.694 67.8242C347.904 67.8242 345.401 66.263 343.132 64.3549C340.744 62.3483 337.255 60.8856 334.854 60.8856C332.571 60.8856 329.507 60.2473 328.047 59.466C323.997 57.2997 317.118 60.8384 311.089 68.1906C308.226 71.6807 305.885 74.9252 305.885 75.3998C305.885 75.8744 304.693 77.9545 303.236 80.0222C298.905 86.174 298.379 93.1043 301.904 97.5811C304.329 100.662 304.546 101.628 303.024 102.569C301.479 103.523 301.585 104.232 303.604 106.462C305.714 108.791 305.808 109.615 304.257 112.098C302.042 115.642 302.044 115.642 294.36 112.351L288.158 109.696L283.308 114.779C280.299 117.935 278.176 121.75 277.714 124.836C277.27 127.8 275.279 131.496 272.789 133.984C270.49 136.28 267.87 140.906 266.965 144.263L265.321 150.364L261.902 146.216C260.021 143.934 257.899 140.818 257.186 139.292C256.474 137.765 255.295 135.58 254.566 134.435C253.252 132.374 250.838 126.766 247.581 118.212C245.06 111.593 235.345 102.677 228.837 101.01C225.762 100.223 221.371 98.9202 219.08 98.1139C216.788 97.3077 213.223 96.3418 211.156 95.9657C207.955 95.3829 207.269 94.4059 206.51 89.3574C205.596 83.2626 206.308 70.5469 208.003 62.6744C208.688 59.4882 208.151 56.5185 206.117 52.2665C204.551 48.9929 202.86 44.6229 202.359 42.5566C201.27 38.0687 192.201 33.1312 185.047 33.1312C179.543 33.1312 172.777 37.3915 168.716 43.4142C164.858 49.1358 164.75 63.6777 168.513 70.2791C171.866 76.1574 175.766 89.5864 174.647 91.3974C174.169 92.1703 172.016 92.8031 169.862 92.8031C167.709 92.8031 165.17 93.7398 164.219 94.8847C163.07 96.2683 159.957 96.9663 154.939 96.9663C147.769 96.9663 147.009 97.3215 139.954 103.99C135.3 108.387 130.529 114.879 127.19 121.358C118.189 138.825 117.267 140.305 112.897 144.293C108.217 148.564 108.081 149.559 110.567 161.334C113.024 172.965 115.647 174.772 126.762 172.483C131.5 171.508 136.73 169.423 138.419 167.84C141.483 164.963 144.702 164.046 144.857 166.005C144.901 166.577 145.148 169.544 145.404 172.597C145.694 176.059 144.661 181.28 142.659 186.474C140.894 191.054 139.026 198.078 138.51 202.085C137.993 206.091 137.015 209.711 136.337 210.131C135.658 210.548 135.207 215.754 135.333 221.696C135.512 230.068 134.862 234.224 132.45 240.166C129.464 247.514 129.368 249.035 130.119 276.826C131.635 332.785 131.15 338.006 123.187 351.595C119.449 357.974 118.49 366.785 121.022 371.488C122.403 374.051 122.408 376.073 121.051 381.365C119.676 386.726 119.7 389.203 121.173 394.102C123.771 402.735 122.999 426.409 119.914 432.761C118.38 435.918 117.811 439.364 118.31 442.483C119.047 447.109 119.446 447.401 127.528 449.264C134.733 450.923 136.553 450.928 139.905 449.287C144.457 447.061 148.08 438.351 146.826 432.648C145.597 427.06 147.384 422.035 150.916 421.15C154.537 420.242 156.533 414.585 158.012 401.035C158.544 396.161 160.162 390.172 161.605 387.727C165.805 380.615 167.533 360.756 165.358 344.595L164.413 337.577L169.872 334.207C172.873 332.353 175.338 330.515 175.347 330.122C175.356 329.73 177.818 326.771 180.815 323.546C185.749 318.238 186.358 316.755 187.233 307.88C187.822 301.907 188.78 298.27 189.684 298.571C191.465 299.165 191.933 305.157 190.667 311.173C189.684 315.848 194.288 329.896 198.228 334.247C201.07 337.383 200.873 341.013 197.44 348.768C194.966 354.356 194.755 356.232 195.977 361.782C196.763 365.347 197.81 373.261 198.305 379.367C199.006 388.038 199.935 391.436 202.544 394.886C204.381 397.316 205.89 401.063 205.894 403.212C205.906 409.623 208.54 417.168 212.338 421.68C215.289 425.185 215.745 426.773 214.973 430.882C213.937 436.404 216.841 441.121 221.277 441.121C222.631 441.121 224.957 442.668 226.446 444.559C230.318 449.477 235.903 451.202 244.513 450.138C252.517 449.148 254.717 446.791 251.875 442.245C250.957 440.775 248.449 436.018 246.302 431.673C242.602 424.188 242.42 422.94 242.827 407.874C243.209 393.674 242.942 391.467 240.321 387.231L237.388 382.488L240.659 380.022C243.918 377.566 243.923 377.517 242.066 365.973C240.991 359.288 239.113 352.988 237.627 351.078C236.21 349.258 235.052 346.131 235.052 344.131C235.052 342.13 234.42 338.311 233.649 335.644C231.634 328.685 234.427 310.356 238.885 301.28L242.478 293.968L239.348 289.737C236.267 285.573 236.234 285.106 237.296 260.274C237.889 246.399 238.173 234.42 237.927 233.657C236.112 228.045 233.923 200.379 235.117 198.149C236.064 196.38 235.989 192.766 234.881 186.847C232.807 175.773 232.57 166.041 234.357 165.456C235.121 165.206 237.146 167.16 238.857 169.799C242.53 175.463 247.311 178.847 253.489 180.154C257.802 181.066 257.953 181.33 257.56 187.233C257.335 190.605 257.742 194.624 258.466 196.165C259.189 197.704 261.216 202.71 262.968 207.29C266.592 216.757 272.435 227.176 278.215 234.481C281.828 239.044 282.197 240.58 282.565 252.521C282.872 262.47 283.406 265.484 284.808 265.192C286.249 264.894 286.442 266.469 285.693 272.45C285.054 277.563 285.45 283.197 286.89 289.484C290.203 303.94 290.975 321.983 288.676 331.233C286.833 338.647 284.322 373.203 284.624 386.999C284.699 390.434 284.85 399.76 284.958 407.722C285.132 420.402 285.496 422.436 287.882 424.106C291.6 426.708 291.303 430.496 287.135 433.623C284.682 435.463 283.663 437.549 283.663 440.724C283.663 446.886 288.572 450.085 296.419 449.033C305.26 447.848 309.151 444.183 310.504 435.769C311.136 431.844 312.19 428.631 312.847 428.631C313.505 428.631 313.69 430.801 313.26 433.455C312.554 437.804 312.869 438.428 316.472 439.788C318.669 440.618 322.055 442.809 323.996 444.659C326.133 446.695 330.451 448.575 334.95 449.427C344.632 451.262 344.307 451.301 347.705 447.905L350.637 444.976L341.802 436.029C333.555 427.676 333.137 426.955 335.523 425.183C337.826 423.473 338 421.79 337.272 408.265C336.827 400.004 336.087 388.896 335.626 383.583C334.708 373 335.847 367.756 341.961 354.423C344.07 349.824 346.58 341.418 347.54 335.743C349.163 326.142 356.487 298.509 357.74 297.257C358.045 296.95 358.743 302.406 359.288 309.38C359.905 317.254 361.554 325.435 363.638 330.969C365.484 335.87 366.995 340.911 366.995 342.168C366.995 343.427 368.562 348.368 370.476 353.149C373.648 361.07 373.947 363.601 373.849 381.705C373.79 392.631 373.508 404.693 373.22 408.509C372.933 412.325 372.444 419.378 372.133 424.181C371.673 431.284 370.883 433.627 367.892 436.745C361.727 443.176 363.73 451.002 372.077 453.095C378.899 454.806 394.773 446.842 394.773 441.71C394.773 440.643 396.96 438.857 399.634 437.74C403.235 436.237 404.495 434.866 404.495 432.449C404.495 430.654 405.188 428.494 406.034 427.649C406.981 426.702 407.262 423.526 406.763 419.392C405.344 407.629 405.141 349.365 406.469 334.96C407.723 321.333 407.781 321.168 409.669 325.768C414.524 337.605 417.166 360.604 417.141 390.83C417.127 407.056 416.707 422.506 416.209 425.16C415.509 428.889 415.812 430.185 417.538 430.846C418.848 431.348 419.773 433.295 419.773 435.549C419.773 437.662 420.71 440.17 421.856 441.121C423.002 442.071 423.939 444.455 423.939 446.42C423.939 448.384 425.586 452.367 427.6 455.27C430.984 460.148 431.77 460.549 437.963 460.549C443.068 460.549 445.339 459.826 447.496 457.511C450.792 453.976 450.914 453.123 448.645 449.491C446.496 446.054 447.89 444.626 451.507 446.559C455.077 448.469 469.111 448.51 472.642 446.623C474.119 445.832 475.328 444.316 475.328 443.253C475.328 441.298 481.66 435.57 483.822 435.57C484.468 435.57 485.389 437.131 485.868 439.039C486.658 442.184 487.417 442.508 493.962 442.508C497.936 442.508 502.254 441.727 503.561 440.774C505.265 439.527 507.714 430.421 512.234 408.509C515.7 391.718 519.068 374.857 519.719 371.041C522.083 357.193 525.255 343.149 527.245 337.727C530.852 327.898 555.756 278.757 557.13 278.757C557.862 278.757 558.876 282.349 559.383 286.737C560.184 293.677 561.748 301.795 567.072 326.634C568.866 335.003 568.628 346.13 566.374 359.245C560.994 390.576 560.677 394.252 562.323 406.428C563.201 412.915 565.177 421.658 566.715 425.856C568.253 430.053 570.262 436.78 571.176 440.803C573.416 450.647 578.376 453.015 589.009 449.311C593.113 447.882 593.382 447.368 593.382 440.985C593.382 437.243 593.949 434.182 594.641 434.182C596.309 434.182 600.327 422.241 600.327 417.282C600.327 415.129 601.01 413.366 601.846 413.366C602.866 413.366 603.059 415.593 602.434 420.134C601.245 428.768 603.778 437.417 609.035 442.669C619.123 452.748 633.346 443.634 637.213 424.614C638.283 419.349 639.424 416.921 640.74 417.103C641.811 417.252 657.661 418.741 675.961 420.414C699.72 422.588 709.805 424.027 711.229 425.449C714.933 429.151 716.561 424.39 718.87 403.097C720.104 391.725 721.447 382.087 721.854 381.68C722.261 381.272 723.284 381.629 724.129 382.473C725.248 383.591 725.227 390.13 724.054 406.665C723.169 419.128 722.411 430.262 722.369 431.406C722.245 434.751 726.394 451.806 728.109 455.009C730.231 458.971 735.227 458.102 737.486 453.378C740.512 447.049 742.36 436.794 742.97 422.948L743.556 409.633L748.426 407.314C751.103 406.038 753.799 405.306 754.417 405.687C755.034 406.068 756.217 409.068 757.045 412.354C757.873 415.641 760.606 420.674 763.119 423.54C766.787 427.722 768.717 428.782 772.913 428.916C779.367 429.121 783.723 425.385 788.524 415.524C795.113 401.991 797.686 388.212 798.52 361.99C799.438 333.132 797.966 322.207 791.31 308.525C786.641 298.928 786.631 298.865 789.33 295.989C790.821 294.398 791.899 291.901 791.725 290.438C791.296 286.833 793.15 275.649 795.82 265.736L798.017 257.573L784.713 244.921C770.885 231.772 768.713 228.629 771.726 226.131C773.046 225.035 774.173 225.372 776.024 227.417C777.405 228.941 779.374 230.187 780.402 230.187C783.513 230.187 782.507 226.771 778.177 222.626C774.528 219.133 773.363 218.789 767.421 219.459C759.258 220.377 756.384 218.983 755.183 213.515C753.901 207.685 746.24 204.026 732.965 202.905C725.823 202.302 721.513 201.203 719.398 199.448C717.693 198.031 714.838 195.626 713.055 194.102C711.272 192.579 708.615 191.331 707.152 191.331C705.084 191.331 704.486 190.328 704.459 186.821C704.44 184.341 703.759 179.501 702.945 176.066C702.132 172.632 701.329 168.081 701.159 165.954C700.376 156.035 684.39 149.934 673.368 155.348C664.11 159.894 659.957 172.895 665.41 180.263C667.044 182.472 668.382 185.632 668.382 187.285C668.382 189.078 671.246 193.062 675.482 197.164L682.583 204.037L678.694 208.092L674.807 212.147L678.886 212.159C682.76 212.172 682.615 212.38 676.021 216.284C664.069 223.358 662.879 225.194 660.711 239.901C659.743 246.457 654.84 257.686 650.453 263.39C648.122 266.418 646.875 266.744 638.004 266.636C632.582 266.57 626.886 266.847 625.347 267.248C621.907 268.147 621.659 271.847 624.979 272.713C627.195 273.29 627.377 275.464 627.032 297.214C626.461 333.381 626.62 332.143 622.574 332.165C617.429 332.194 617.371 336.287 622.485 338.403C625.077 339.476 626.716 341.163 626.716 342.76C626.716 344.442 627.702 345.368 629.493 345.368C633.568 345.368 632.863 348.49 628.186 351.149C623.55 353.784 622.773 356.062 618.077 380.755L614.91 397.407L608 402.022C604.2 404.558 600.981 406.12 600.846 405.491C600.712 404.861 599.889 396.228 599.02 386.306C598.149 376.383 596.53 358.573 595.419 346.727C593.634 327.677 593.642 323.828 595.494 313.421C597.635 301.386 600.709 262.248 600.399 250.977C600.303 247.528 599.262 240.971 598.084 236.406C596.905 231.841 595.43 224.983 594.803 221.167C594.178 217.351 593.234 212.043 592.707 209.372C591.863 205.097 592.22 204.168 595.689 201.621C597.859 200.029 601.314 198.309 603.371 197.798C605.428 197.287 612.928 192.97 620.038 188.202C632.478 179.863 632.981 179.325 633.378 173.931C633.738 169.054 632.906 167.163 626.968 159.36C623.216 154.429 618.749 149.149 617.043 147.626C615.338 146.104 611.457 140.607 608.42 135.412C602.88 125.934 599.413 123.237 590.307 121.322C585.558 120.323 580.152 111.303 578.876 102.245C577.034 89.1798 565.398 66.2713 558.274 61.6891C553.965 58.9164 545.315 57.4968 544.155 59.373C543.64 60.2056 542.129 60.8856 540.795 60.8856C539.463 60.8856 536.272 63.0505 533.705 65.6968L529.037 70.5094L528.095 93.726C527.579 106.494 526.587 117.133 525.894 117.364C518.943 119.693 514.766 123.448 510.716 131.018C508.251 135.625 505.793 141.402 505.254 143.855C503.909 149.97 501.487 149.432 498.58 142.368C493.893 130.974 459.361 94.0174 448.49 88.7593C445.221 87.1773 439.649 85.3428 436.109 84.6822C431.598 83.8399 427.717 81.7611 423.138 77.7339C419.543 74.5727 416.046 71.9874 415.364 71.9874C414.682 71.9874 414.253 67.4592 414.413 61.9264C414.83 47.3942 412.305 34.3288 408.581 31.7435C406.931 30.5986 404.244 28.3755 402.607 26.8018C396.962 21.3731 391.174 20.07 381.578 22.0683ZM1665.2 39.2927C1662.36 42.6829 1660.04 46.47 1660.04 47.7092C1660.04 48.9484 1658.17 51.5393 1655.87 53.4655C1650.68 57.8312 1650.56 60.5692 1655.53 61.1409C1658.99 61.5378 1659.35 62.104 1659.35 67.1609C1659.35 71.1173 1660.69 74.8377 1663.97 79.9431C1668.56 87.0843 1668.57 87.1801 1666.16 91.2655C1663.76 95.3288 1659.47 97.4589 1646.6 100.98C1640.13 102.75 1634.3 108.658 1633.13 114.626C1632.72 116.744 1631.03 125.569 1629.37 134.236L1626.36 149.998L1630.08 153.44C1633.67 156.764 1633.78 157.347 1633.49 170.427C1633.2 183.339 1633.37 184.208 1637.07 189.055C1640.72 193.836 1640.91 194.785 1640.33 204.925C1639.84 213.353 1638.69 217.914 1635.06 225.781C1632.5 231.32 1630.45 236.605 1630.5 237.528C1631.23 251.698 1634.36 270.696 1638.24 284.473C1642.17 298.399 1643.38 305.861 1644.62 323.858C1645.47 336.07 1646.18 350.433 1646.2 355.776C1646.22 361.238 1647.45 369.742 1649.02 375.204C1650.55 380.547 1653.09 390.538 1654.65 397.407C1656.21 404.277 1657.79 411.158 1658.17 412.701C1658.61 414.49 1657.31 417.45 1654.59 420.871C1650.09 426.527 1648.92 433.618 1651.99 436.68C1654.4 439.087 1665.07 438.724 1670.72 436.044C1673.4 434.779 1676.25 432.281 1677.06 430.493C1678.01 428.405 1679.73 427.243 1681.86 427.243C1683.69 427.243 1686.94 426.333 1689.09 425.221C1692.81 423.301 1693.06 422.574 1693.98 410.796C1694.62 402.607 1694.39 396.34 1693.3 392.349C1691.53 385.867 1690.5 328.936 1692.14 327.928C1693.27 327.228 1698.4 346.102 1699.7 355.776C1700.21 359.592 1701.78 367.086 1703.18 372.428C1704.58 377.771 1706.14 385.265 1706.65 389.081C1709.18 407.993 1714.6 424.385 1719.17 426.939C1720.37 427.611 1722.09 429.611 1722.99 431.383C1723.89 433.154 1725.87 435.289 1727.4 436.128C1731.32 438.276 1732.21 439.835 1732.27 444.59C1732.3 447.682 1733.47 449.559 1736.8 451.889L1741.29 455.025L1741.65 387.641C1741.88 344.245 1741.51 319.325 1740.61 317.639C1738.8 314.262 1738.79 304.157 1740.6 303.043C1741.5 302.485 1741.99 270.756 1741.99 212.412L1742 122.639L1737.77 112.134C1733.91 102.556 1732.99 101.361 1727.31 98.6038C1723.88 96.9399 1718.69 95.5786 1715.77 95.5786C1707.18 95.5786 1701.71 93.089 1701.71 89.184C1701.71 87.3438 1700.46 84.7682 1698.93 83.461C1695.7 80.7008 1695.18 74.7628 1698.16 74.7628C1703.29 74.7628 1706.57 62.9589 1702.4 59.4979C1701.26 58.5473 1700.32 56.2243 1700.32 54.3342C1700.32 50.3098 1696.39 41.4575 1694.6 41.4575C1693.93 41.4575 1693.37 40.5652 1693.37 39.4745C1693.37 35.0629 1689.2 33.1312 1679.68 33.1312H1670.35L1665.2 39.2927ZM-57.5682 44.8935C-61.5112 47.5469 -65.1195 50.919 -65.5862 52.3886C-66.0528 53.8568 -67.9959 55.4499 -69.9042 55.9287C-71.8125 56.4074 -74.0458 58.2739 -74.8681 60.078C-75.6917 61.8806 -77.8736 64.1634 -79.7194 65.1515C-81.5666 66.1381 -83.4194 68.3127 -83.8388 69.9821C-84.5291 72.7284 -86.536 74.2535 -92.7235 76.7334C-98.9359 79.2243 -103.275 83.0128 -104.469 86.99C-105.454 90.2705 -106.611 91.4154 -108.941 91.4154C-110.805 91.4154 -113.307 93.0668 -115.089 95.4745C-116.74 97.7073 -119.544 99.8972 -121.32 100.343C-127.607 101.919 -132.261 111.517 -137.854 134.435C-140.741 146.265 -143.409 160.756 -143.783 166.635C-144.376 175.969 -144.065 177.995 -141.333 182.594C-138.172 187.917 -137.423 193.001 -137.029 211.836C-136.818 221.885 -136.791 221.951 -131.466 225.713C-125.47 229.95 -125.155 231.55 -128.13 242.677C-129.984 249.61 -131.641 261.895 -137.887 314.994C-139.019 324.62 -139.945 336.981 -139.945 342.459C-139.945 347.939 -140.852 356.925 -141.961 362.426C-143.07 367.927 -144.956 377.736 -146.155 384.224C-147.352 390.712 -148.662 397.073 -149.066 398.361C-149.651 400.23 -148.737 400.789 -144.524 401.136C-139.662 401.537 -139.216 401.933 -138.806 406.212C-138.275 411.748 -141.193 419.49 -147.898 430.346C-151.811 436.678 -153.856 438.606 -157.842 439.712C-160.604 440.478 -163.628 441.108 -164.566 441.112C-167.015 441.123 -170.952 447.657 -170.002 450.13C-169.369 451.78 -166.558 452.222 -156.704 452.222C-144.708 452.222 -144.012 452.05 -139.3 447.915C-135.934 444.963 -134.39 444.262 -134.39 445.685C-134.39 448.5 -131.393 449.447 -122.47 449.447H-114.946L-114.925 442.855C-114.912 439.229 -114.351 435.393 -113.677 434.329C-112.964 433.204 -112.984 430.865 -113.727 428.738C-114.704 425.939 -114.214 423.138 -111.636 416.795L-108.269 408.509L-98.379 407.332C-85.1999 405.766 -84.3902 406.196 -84.3902 414.754C-84.3902 419.677 -83.7749 422.016 -82.3333 422.568C-81.2027 423.001 -80.2888 424.7 -80.3027 426.341C-80.3736 434.786 -78.3139 444.183 -76.2167 444.985C-74.9833 445.457 -72.9417 447.113 -71.682 448.666C-69.8153 450.965 -67.7487 451.494 -60.571 451.509L-51.7516 451.528L-51.3071 446.888C-51.0613 444.337 -51.6863 441.215 -52.696 439.949C-55.9876 435.824 -58.0015 431.499 -58.0015 428.559C-58.0015 426.971 -58.6487 424.465 -59.439 422.989C-60.4487 421.104 -60.4084 419.43 -59.3043 417.37C-58.0376 415.004 -56.8404 414.579 -53.1307 415.181C-50.5988 415.591 -48.103 415.507 -47.5835 414.994C-47.0641 414.48 -42.4766 414.06 -37.3906 414.06H-28.1406L-27.149 389.775C-26.6031 376.418 -26.849 338.16 -27.6934 304.758L-29.2281 244.026L-23.4768 238.219C-16.4907 231.17 -16.1241 227.05 -21.1615 212.248C-23.6032 205.078 -24.4115 200.278 -23.9518 195.7C-23.5948 192.151 -23.0643 185.503 -22.7726 180.923C-22.4823 176.344 -21.6074 167.747 -20.8282 161.82C-19.2101 149.491 -20.2018 121.702 -22.3087 120.34C-23.1462 119.798 -21.924 117.165 -19.3004 113.856C-15.1754 108.651 -14.9727 107.889 -16.2282 102.303C-17.3421 97.3535 -17.1685 95.8769 -15.2213 93.7274C-12.306 90.5092 -12.7171 75.304 -15.8143 71.8305C-16.9116 70.5996 -18.074 68.2197 -18.3977 66.5433C-19.2435 62.1595 -23.6379 52.5593 -24.8004 52.5593C-25.342 52.5593 -26.424 50.7317 -27.2031 48.4974C-28.4337 44.9671 -29.499 44.3218 -35.3253 43.5697C-39.0128 43.0923 -43.1141 42.1112 -44.4405 41.3868C-48.2502 39.3066 -49.9335 39.7562 -57.5682 44.8935ZM-229.446 48.2629C-229.963 49.0997 -232.128 49.7839 -234.256 49.7839C-238.063 49.7839 -243.304 54.0067 -243.456 57.1943C-243.565 59.5201 -247.281 66.9499 -248.945 68.1711C-249.861 68.8442 -249.682 69.649 -248.438 70.4511C-247.174 71.2644 -246.821 72.9171 -247.411 75.2651C-248.125 78.1072 -247.595 79.3103 -244.821 81.1241C-242.903 82.3814 -241.333 84.6891 -241.333 86.2559C-241.333 87.8226 -239.196 92.9891 -236.583 97.7379L-231.834 106.372L-234.847 109.107C-236.504 110.61 -239.477 113.749 -241.45 116.079C-244.12 119.232 -246.7 120.567 -251.519 121.289L-258 122.26V196.346C-258 244.811 -257.519 270.431 -256.611 270.431C-255.847 270.431 -255.222 272.305 -255.222 274.594C-255.222 276.884 -255.822 278.757 -256.554 278.757C-257.389 278.757 -257.899 309.758 -257.921 361.808L-257.956 444.858L-254.44 446.459C-252.507 447.339 -247.204 448.059 -242.657 448.059H-234.389V441.8C-234.389 437.163 -233.642 434.917 -231.502 433.127C-226.535 428.974 -224.653 423.703 -224.838 414.472C-224.935 409.666 -224.31 403.975 -223.452 401.827C-221.36 396.598 -221.556 388.092 -224 377.979C-226.824 366.293 -226.556 358.134 -222.692 338.328C-220.842 328.843 -218.909 317.805 -218.395 313.799C-216.86 301.819 -214.945 303.942 -214.945 317.623C-214.945 324.587 -214.239 331.602 -213.377 333.212C-212.516 334.821 -211.63 340.244 -211.409 345.264C-210.75 360.262 -213.418 395.422 -215.893 404.346C-218.529 413.857 -218.823 431.878 -216.388 434.811C-215.489 435.893 -212.895 437.186 -210.623 437.686C-207.486 438.373 -206.299 439.562 -205.685 442.625C-205.041 445.844 -203.864 446.913 -199.842 447.925C-190.251 450.338 -180.171 450.586 -178.044 448.459C-174.902 445.32 -175.648 443.105 -181.83 437.228C-187.339 431.991 -187.474 431.669 -184.774 430.224C-182.419 428.964 -182.053 427.717 -182.598 422.773C-182.956 419.507 -182.221 409.966 -180.963 401.571C-179.705 393.175 -178.703 379.124 -178.738 370.347C-178.813 351.237 -176.901 321.458 -174.005 296.623C-172.841 286.652 -171.89 276.022 -171.89 273.001C-171.89 269.429 -170.676 265.724 -168.417 262.403C-166.508 259.594 -164.945 255.881 -164.945 254.15C-164.945 251.987 -164.123 251.003 -162.316 251.003C-160.87 251.003 -159.308 250.015 -158.844 248.808C-157.567 245.484 -157.834 241.289 -159.322 241.289C-160.131 241.289 -160.435 230.407 -160.109 213.188L-159.576 185.086L-156.01 183.778C-154.049 183.058 -152.445 181.756 -152.445 180.886C-152.445 177.836 -163.277 136.161 -164.817 133.287C-167.955 127.429 -177.326 122.366 -189.694 119.846C-195.707 118.622 -205.223 109.908 -205.223 105.627C-205.223 101.805 -202.145 95.4329 -199.064 92.8795C-197.869 91.8872 -196.889 89.628 -196.889 87.8587C-196.889 86.088 -196.192 84.2104 -195.341 83.6844C-193.855 82.7672 -193.945 81.2074 -196.363 66.0687C-196.824 63.1878 -198.534 59.7643 -200.175 58.4363C-201.813 57.1124 -204.267 54.2981 -205.628 52.1832C-207.627 49.0775 -209.096 48.3531 -213.26 48.4225C-216.096 48.4711 -220.686 48.1117 -223.461 47.626C-226.552 47.0847 -228.87 47.3318 -229.446 48.2629ZM1379.68 158.056C1372.74 161.204 1369.28 161.569 1370.11 159.067C1370.7 157.289 1376.09 155.683 1382.27 155.445C1384.98 155.341 1384.42 155.91 1379.68 158.056ZM461.717 162.467C460.421 163.761 460.05 163.392 460.05 160.801C460.05 158.21 460.421 157.841 461.717 159.136C463.013 160.431 463.013 161.172 461.717 162.467ZM601.762 162.907C608.488 166.312 608.66 166.555 608.66 172.621C608.66 176.043 608.067 178.842 607.343 178.842C606.618 178.842 604.362 180.382 602.33 182.265C598.887 185.453 584.691 194.107 582.905 194.107C582.466 194.107 582.478 193.507 582.931 192.776C583.384 192.043 582.987 190.215 582.049 188.715C580.719 186.587 580.708 185.185 582.002 182.348C582.914 180.347 583.66 176.836 583.66 174.544C583.66 167.675 589.046 159.64 593.776 159.455C594.374 159.433 597.969 160.986 601.762 162.907ZM520.255 168.141C522.797 174.222 524.543 190.794 522.757 191.897C520.595 193.232 512.827 182.834 512.827 178.607C512.827 176.537 512.202 174.457 511.439 173.985C509.011 172.486 509.94 167.974 513.137 165.737C517.429 162.733 518.086 162.954 520.255 168.141ZM463.136 173.599L460.05 176.682V170.515V164.348L463.136 167.432L466.222 170.515L463.136 173.599ZM462.388 180.49C461.945 181.596 461.615 181.267 461.549 179.651C461.489 178.188 461.817 177.369 462.278 177.83C462.739 178.291 462.789 179.488 462.388 180.49ZM1241.95 183.711C1243.28 183.288 1245.16 183.883 1246.11 185.032C1248.14 187.471 1245.29 193.074 1236.71 203.558L1231.57 209.832L1230.65 203.01C1229.43 193.937 1229.27 179.526 1230.38 178.418C1230.86 177.93 1233.12 179.094 1235.4 181.005C1237.85 183.07 1240.51 184.168 1241.95 183.711ZM496.99 187.079C497.68 188.557 502.603 193.595 507.93 198.273C522.175 210.786 522.347 211.164 521.684 228.558C521.266 239.57 520.45 244.577 518.451 248.409C516.98 251.229 515.341 255.932 514.811 258.86C514.279 261.79 512.709 267.309 511.323 271.125C509.937 274.941 507.561 282.871 506.041 288.746C504.523 294.622 502.675 300.558 501.936 301.938C500.047 305.465 495.278 326.409 494.098 336.348C493.557 340.927 492.182 346.86 491.044 349.531C485.646 362.212 472.55 404.55 472.55 409.324C472.55 417.786 463.057 431.406 457.159 431.406C456.457 431.406 455.882 427.504 455.882 422.733C455.879 414.826 454.228 403.524 450.05 382.836C448.468 375.008 448.429 282.107 450.006 279.548C450.443 278.839 451.007 269.784 451.259 259.427C451.51 249.07 451.786 239.658 451.872 238.514C451.96 237.369 451.82 233.056 451.561 228.929C451.178 222.775 451.558 221.152 453.674 219.908C455.093 219.074 459.343 215.999 463.117 213.074C466.892 210.149 472.003 206.911 474.478 205.879C479.608 203.736 490.036 193.008 491.998 187.851C493.578 183.703 495.29 183.438 496.99 187.079ZM1157.27 207.853C1157.27 212.591 1156.92 213.184 1154.49 212.549C1151.42 211.747 1150.96 209.204 1153.15 205.117C1155.46 200.805 1157.27 202.008 1157.27 207.853ZM640.604 273.687C640.604 273.952 639.52 276.293 638.195 278.891C636.593 282.03 635.545 288.272 635.07 297.492C634.232 313.729 632.786 311.194 632.382 292.778C632.086 279.369 634.029 273.207 638.553 273.207C639.681 273.207 640.604 273.423 640.604 273.687ZM784.193 315.185C787.767 323.037 789.118 332.326 789.993 355.082C790.743 374.588 789.968 380.411 786.705 379.778C784.635 379.375 784.405 377.502 784.78 364.126C785.018 355.565 785.899 348.003 786.795 346.803C788.118 345.032 788.059 344.965 786.439 346.409C783.663 348.882 782.27 348.557 782.27 345.437C782.27 343.948 783.359 342.122 784.689 341.378C786.02 340.634 786.716 339.632 786.235 339.154C785.756 338.674 782.949 340.576 779.998 343.379C777.046 346.183 775.705 348.116 777.017 347.676C780.384 346.549 781.338 348.876 778.621 351.59C777.12 353.091 775.869 353.404 774.967 352.504C774.214 351.751 772.814 351.436 771.856 351.804C769.421 352.737 768.076 346.353 769.767 341.904C770.532 339.893 771.159 336.765 771.159 334.952C771.159 331.16 773.751 328.944 775.285 331.426C775.946 332.494 776.631 331.677 777.175 329.175C778.325 323.876 780.246 321.222 782.102 322.366C783.807 323.42 780.395 333.21 778.037 334.034C777.309 334.29 776.714 335.306 776.714 336.294C776.714 337.282 775.845 338.811 774.781 339.692C772.616 341.488 770.863 346.756 772.431 346.756C772.988 346.756 774.845 343.955 776.556 340.53C778.267 337.107 780.685 333.737 781.93 333.041C784.593 331.552 784.975 318.374 782.428 315.829C780.914 314.316 780.266 310.675 781.51 310.675C781.856 310.675 783.063 312.704 784.193 315.185ZM634.608 316.487C634.165 317.593 633.836 317.264 633.77 315.647C633.71 314.185 634.038 313.366 634.499 313.826C634.96 314.287 635.01 315.485 634.608 316.487ZM754.492 333.084C754.492 334.545 753.398 336.079 752.062 336.492C750.726 336.906 748.546 337.823 747.22 338.531C745.894 339.238 743.081 339.791 740.97 339.757C737.152 339.699 737.165 339.67 743.194 334.379C749.608 328.75 754.492 328.191 754.492 333.084ZM765.163 335.915C764.72 337.021 764.391 336.692 764.324 335.075C764.264 333.613 764.592 332.794 765.053 333.255C765.514 333.715 765.564 334.913 765.163 335.915ZM671.751 341.503C671.508 346.525 670.955 347.49 667.849 348.32C663.458 349.494 662.704 348.475 663.165 342.005C663.401 338.686 664.101 337.239 665.257 337.68C666.212 338.044 666.993 337.737 666.993 336.999C666.993 336.259 668.128 335.654 669.514 335.654C671.597 335.654 671.986 336.672 671.751 341.503ZM724.851 339.194C725.777 341.606 722.416 345.618 712.454 353.983C707.001 358.564 705.469 359.244 703.773 357.837C701.301 355.787 701.127 350.272 703.332 343.84C705.454 337.648 706.5 337.087 715.994 337.062C721.981 337.047 724.234 337.588 724.851 339.194ZM752.558 343.4C752.094 344.607 751.715 347.766 751.715 350.421C751.715 356.549 749.574 355.379 748.481 348.654C747.542 342.869 748.16 341.205 751.251 341.205C752.641 341.205 753.102 341.981 752.558 343.4ZM763.574 371.449C761.695 373.328 761.392 369.734 762.416 357.68L763.52 344.674L763.921 357.687C764.142 364.845 763.987 371.038 763.574 371.449ZM746.159 354.388C747.041 357.059 748.34 359.245 749.045 359.245C749.749 359.245 750.326 362.392 750.326 366.238C750.326 370.085 750.992 379.202 751.806 386.5C752.62 393.798 752.958 400.097 752.555 400.501C751.308 401.745 736.595 387.835 736.513 385.334C736.472 384.037 735.412 382.401 734.159 381.7C731.609 380.275 732.737 377.285 735.824 377.285C736.926 377.285 737.826 376.349 737.826 375.204C737.826 374.048 736.591 373.122 735.048 373.122C732.615 373.122 732.27 372.197 732.27 365.652C732.27 359.348 732.704 358.068 735.048 357.455C736.576 357.057 737.826 355.988 737.826 355.082C737.826 354.176 736.576 353.107 735.048 352.709C730.105 351.417 732.102 349.531 738.412 349.531C744.201 349.531 744.647 349.811 746.159 354.388ZM725.326 351.72C725.326 352.159 723.451 354.394 721.159 356.683C718.822 359.018 716.993 362.323 716.993 364.209C716.993 368.192 716.043 368.399 712.495 365.192C709.941 362.881 710.061 362.635 716.552 356.918C722.879 351.346 725.326 349.896 725.326 351.72ZM631.488 361.674C629.817 369.287 629.443 369.896 628.003 367.334C627.185 365.878 627.207 363.684 628.063 361.436C629.9 356.607 632.557 356.792 631.488 361.674ZM664.539 363.757C663.821 366.536 663.987 366.669 666.058 364.974C668.117 363.286 668.364 363.444 668.218 366.361C668.128 368.171 667.657 371.497 667.174 373.751L666.294 377.85L663.762 373.99C661.861 371.091 661.46 368.77 662.151 364.681C662.658 361.685 663.583 359.549 664.208 359.935C664.832 360.321 664.98 362.04 664.539 363.757ZM777.731 362.367C778.478 363.322 779.759 366.095 780.578 368.53C781.814 372.202 781.73 372.828 780.085 372.198C776.642 370.877 777.928 374.309 782.964 379.878C785.638 382.835 787.821 386.428 787.817 387.861C787.805 392.156 784.703 401.734 784.053 399.489C783.721 398.344 782.16 394.778 780.585 391.562C778.134 386.561 777.346 385.92 775.114 387.113C771.437 389.08 770.195 385.207 773.089 380.792C774.32 378.917 775.325 376.164 775.325 374.675C775.325 373.185 776.046 371.726 776.927 371.432C778.028 371.066 777.785 369.765 776.149 367.27C772.712 362.027 769.77 361.27 769.77 365.627C769.77 368.515 770.269 368.988 772.548 368.265C775.385 367.366 776.449 369.489 773.937 371.041C773.173 371.513 772.548 373.372 772.548 375.172C772.548 379.348 771.216 382.836 769.621 382.836C768.198 382.836 767.905 362.959 769.307 361.558C770.862 360.006 776.291 360.527 777.731 362.367ZM726.715 367.571C726.715 371.581 726.136 373.122 724.631 373.122C722.441 373.122 722.023 370.364 723.423 365.143C724.772 360.117 726.715 361.55 726.715 367.571ZM711.234 370.831L715.743 375.48L714.284 387.101C713.483 393.493 712.826 398.895 712.826 399.106C712.826 399.787 706.347 399.513 702.02 398.648C698.287 397.901 697.743 397.158 697.193 392.056C696.852 388.894 697.107 385.712 697.757 384.987C698.405 384.263 698.937 381.181 698.937 378.138C698.937 373.118 702.948 366.184 705.851 366.184C706.332 366.184 708.754 368.275 711.234 370.831ZM764.055 379.714L763.895 386.306L762.816 380.755C761.819 375.629 762.077 373.122 763.602 373.122C763.939 373.122 764.142 376.088 764.055 379.714ZM627.099 385.54C627.803 388.226 624.645 392.331 623.078 390.766C621.892 389.581 623.986 381.315 625.272 382.109C625.882 382.485 626.703 384.028 627.099 385.54ZM660.84 386.196C662.121 391.296 661.011 394.632 658.035 394.632C655.865 394.632 655.306 393.523 655.06 388.734C654.804 383.773 655.172 382.836 657.376 382.836C658.989 382.836 660.319 384.127 660.84 386.196ZM766.971 393.591C766.982 394.546 766.367 395.326 765.603 395.326C764.839 395.326 764.224 393.608 764.235 391.51C764.252 388.536 764.555 388.153 765.603 389.775C766.344 390.92 766.959 392.638 766.971 393.591ZM782.27 403.917C782.27 407.739 781.681 409.203 780.143 409.203C778.973 409.203 777.602 408.109 777.096 406.774C776.589 405.44 775.359 403.52 774.362 402.513C771.463 399.582 772.162 395.583 775.673 395.004C779.884 394.309 782.27 397.532 782.27 403.917ZM743.822 399.389C746.088 401.698 747.14 403.741 746.322 404.246C745.545 404.725 744.202 403.798 743.338 402.184C742.474 400.571 741.406 399.611 740.966 400.052C739.788 401.229 736.336 398 737.229 396.557C738.433 394.61 739.64 395.127 743.822 399.389ZM776.934 399.489C776.934 401.397 777.249 402.178 777.634 401.224C778.02 400.27 778.02 398.709 777.634 397.754C777.249 396.801 776.934 397.581 776.934 399.489ZM775.956 411.978C778.399 411.978 778.867 415.506 776.607 416.901C773.289 418.95 764.109 403.028 766.438 399.263C766.902 398.513 768.749 401.068 770.545 404.939C772.409 408.957 774.73 411.978 775.956 411.978ZM738.867 403.982C740.938 405.649 741.187 412.843 739.215 414.06C738.451 414.532 737.826 413.771 737.826 412.37C737.826 408.667 733.785 403.483 731.104 403.746C727.362 404.113 726.495 403.741 727.459 402.183C728.473 400.544 736.087 401.744 738.867 403.982ZM614.402 416.511C613.638 417.274 611.895 417.47 610.528 416.945C608.518 416.175 608.41 415.766 609.961 414.808C612.534 413.219 616.264 414.65 614.402 416.511ZM631.924 417.182C632.264 418.2 631.306 418.917 629.609 418.917C627.903 418.917 626.716 418.021 626.716 416.734C626.716 414.184 631.049 414.557 631.924 417.182ZM730.64 420.412C730.484 424.385 730.061 425.434 729.22 423.934C728.144 422.01 729.018 414.754 730.327 414.754C730.622 414.754 730.762 417.3 730.64 420.412ZM613.575 421.78C614.077 422.592 613.371 424.489 612.006 425.996C609.927 428.291 609.341 428.409 608.395 426.722C606.055 422.542 611.081 417.747 613.575 421.78ZM632.25 424.121C632.238 425.456 631.681 427.414 631.01 428.471C630.034 430.013 629.488 429.826 628.253 427.522C626.009 423.331 626.357 421.692 629.493 421.692C631.221 421.692 632.263 422.611 632.25 424.121ZM617.652 433.141C616.498 440.121 616.363 440.321 613.549 439.242C609.793 437.801 609.52 434.229 612.893 430.642C617.506 425.736 618.766 426.398 617.652 433.141ZM626.182 430.764C628.388 434.128 628.347 434.439 625.278 437.703C620.802 442.464 619.503 441.977 620.511 435.917C622.171 425.937 622.702 425.456 626.182 430.764ZM732.609 442.855C733.388 450.103 731.638 451.885 730.194 445.314C729.411 441.752 730.419 434.516 731.517 435.812C731.729 436.061 732.219 439.229 732.609 442.855Z" fill="white" fill-opacity="0.05"/>
</svg>
