<svg width="17" height="18" viewBox="0 0 17 18" fill="none" xmlns="http://www.w3.org/2000/svg">
<path d="M7.41564 4.64252L4.8784 1.68783C4.5859 1.34734 4.04966 1.34885 3.70991 1.69237L1.62342 3.80113C1.00242 4.42839 0.824675 5.35982 1.18392 6.10662C3.33013 10.5897 6.91393 14.2103 11.3546 16.3818C12.0941 16.7443 13.0166 16.5649 13.6376 15.9377L15.7436 13.8092C16.0848 13.465 16.0856 12.9209 15.7451 12.6259L12.8051 10.0798C12.4976 9.81341 12.0199 9.84822 11.7116 10.16L10.6886 11.1935C10.6362 11.2489 10.5673 11.2854 10.4924 11.2974C10.4175 11.3095 10.3407 11.2964 10.2739 11.2601C8.60172 10.2887 7.21463 8.88746 6.2539 7.19921C6.21792 7.13168 6.20489 7.05411 6.21681 6.97839C6.22873 6.90267 6.26495 6.83299 6.3199 6.78003L7.33989 5.75024C7.64889 5.43699 7.68264 4.95274 7.41564 4.64176V4.64252Z" fill="#2F3486" stroke="#2F3486" stroke-linecap="round" stroke-linejoin="round"/>
</svg>
