<svg width="55" height="55" viewBox="0 0 55 55" fill="none" xmlns="http://www.w3.org/2000/svg">
<path fill-rule="evenodd" clip-rule="evenodd" d="M26.2239 0.0298582C17.587 0.432831 9.68452 4.84319 4.7869 11.9938C1.05486 17.4426 -0.575563 24.0544 0.180998 30.6719C1.03968 38.1825 4.99387 45.0305 11.0933 49.5704C16.7145 53.7543 23.6701 55.6189 30.671 54.8185C38.5612 53.9166 45.6945 49.6056 50.2131 43.0084C53.945 37.5598 55.5756 30.9474 54.819 24.3303C53.9171 16.4417 49.6003 9.29935 43.0086 4.78926C38.0916 1.42508 32.1897 -0.248452 26.2239 0.0298582ZM29.1277 2.05824C32.6698 2.30928 35.785 3.14856 38.8549 4.67886C40.5194 5.50861 41.9431 6.41531 43.3865 7.56507C48.7651 11.8493 52.2004 18.15 52.8647 24.949C52.9624 25.9494 52.9811 26.3593 52.9811 27.5011C52.9811 28.6428 52.9624 29.0528 52.8647 30.0532C52.2003 36.8528 48.7699 43.1447 43.3865 47.4375C39.5446 50.501 34.9019 52.3906 30.0523 52.8643C29.0518 52.9621 28.6418 52.9808 27.5 52.9808C26.3579 52.9808 25.9473 52.962 24.9478 52.8643C20.0972 52.3898 15.4547 50.5004 11.6135 47.4375C6.23015 43.1447 2.79969 36.8528 2.13532 30.0532C2.03758 29.0528 2.01888 28.6428 2.01888 27.5011C2.01888 26.3593 2.03758 25.9494 2.13532 24.949C2.79966 18.1498 6.23479 11.8494 11.6135 7.56507C13.9574 5.69812 16.5919 4.26454 19.4135 3.32067C21.7267 2.54692 23.9444 2.14537 26.5885 2.02155C26.9511 2.00457 28.7341 2.03032 29.1277 2.05824ZM13.4127 26.4659C11.3918 32.5282 9.73841 37.497 9.73841 37.5077C9.73841 37.5184 11.1535 37.5271 12.8831 37.527L16.0279 37.5267L16.4299 36.3031L16.832 35.0795L19.9179 35.0729L23.0039 35.0663L23.1178 34.7147L23.2317 34.3631L22.7674 32.8918L22.3032 31.4204L20.1877 31.4137C19.0242 31.4101 18.0723 31.3983 18.0723 31.3876C18.0723 31.3769 19.2618 27.7999 20.7157 23.4385C22.1696 19.0772 23.3591 15.4942 23.3591 15.4763C23.3591 15.4503 22.717 15.4437 20.223 15.4437H17.087L13.4127 26.4659ZM27.0594 26.4659C25.0386 32.5282 23.3852 37.497 23.3852 37.5078C23.3852 37.5186 24.7994 37.5245 26.5278 37.5208L29.6705 37.5142L30.076 36.2967L30.4816 35.0793H33.7075H36.9334L36.916 35.0077C36.9006 34.9439 36.0999 32.4041 35.8693 31.6873L35.7792 31.4074H33.7491C32.6326 31.4074 31.719 31.4005 31.719 31.392C31.719 31.3836 32.9086 27.7999 34.3624 23.4283C35.8163 19.0566 37.0059 15.4717 37.0059 15.4618C37.0059 15.4518 35.5946 15.4437 33.8698 15.4437H30.7337L27.0594 26.4659ZM22.8944 20.3466L21.3777 24.9111L22.5929 28.7387C23.2613 30.8438 23.8169 32.5825 23.8276 32.6025C23.8394 32.6243 24.4639 30.7886 25.398 27.9865L26.9488 23.3344L25.6976 19.5778C25.0095 17.5117 24.4385 15.8124 24.4288 15.8017C24.4191 15.7909 23.7286 17.8361 22.8944 20.3466ZM36.3808 20.3265C35.3809 23.3262 34.8687 24.8979 34.8762 24.9441C34.8825 24.9826 35.7825 27.8295 36.8762 31.2706L38.8649 37.5272H42.0112C43.7416 37.5272 45.1574 37.5226 45.1574 37.5169C45.1574 37.5007 37.9127 15.7962 37.9043 15.7871C37.9002 15.7826 37.2146 17.8254 36.3808 20.3265Z" fill="#3661DA"/>
</svg>
