<svg width="125" height="125" viewBox="0 0 125 125" fill="none" xmlns="http://www.w3.org/2000/svg">
<circle cx="62.5" cy="62.5" r="61.5" fill="#3661DA"/>
<path fill-rule="evenodd" clip-rule="evenodd" d="M59.5997 0.0678595C39.9705 0.983707 22.0103 11.0072 10.8793 27.2586C2.39741 39.6424 -1.3081 54.6692 0.411359 69.7088C2.3629 86.7783 11.3497 102.342 25.2121 112.66C37.9876 122.169 53.7956 126.407 69.7068 124.588C87.6391 122.538 103.851 112.74 114.121 97.7463C122.602 85.3632 126.308 70.3349 124.589 55.2961C122.539 37.3675 112.728 21.1349 97.7468 10.8847C86.5719 3.23882 73.1583 -0.564664 59.5997 0.0678595ZM66.1994 4.67781C74.2496 5.24837 81.3296 7.15582 88.3067 10.6338C92.0897 12.5196 95.3251 14.5803 98.6057 17.1933C110.83 26.9302 118.637 41.25 120.147 56.7022C120.369 58.9758 120.412 59.9075 120.412 62.5025C120.412 65.0974 120.369 66.0291 120.147 68.3027C118.637 83.7564 110.841 98.0562 98.6057 107.812C89.8741 114.775 79.3225 119.069 68.3006 120.146C66.0268 120.368 65.0951 120.411 62.5 120.411C59.9043 120.411 58.9711 120.368 56.6994 120.146C45.6755 119.068 35.1243 114.774 26.3944 107.812C14.1594 98.0562 6.36293 83.7564 4.853 68.3027C4.63086 66.0291 4.58837 65.0974 4.58837 62.5025C4.58837 59.9075 4.63086 58.9758 4.853 56.7022C6.36287 41.2495 14.17 26.9305 26.3944 17.1933C31.7213 12.9503 37.7089 9.69213 44.1217 7.54698C49.3789 5.78844 54.4191 4.87585 60.4284 4.59442C61.2524 4.55583 65.3047 4.61437 66.1994 4.67781ZM30.4834 60.1498C25.8905 73.9276 22.1327 85.2204 22.1327 85.2448C22.1327 85.2692 25.3489 85.2889 29.2799 85.2886L36.427 85.288L37.3408 82.507L38.2546 79.7261L45.268 79.7111L52.2815 79.696L52.5404 78.897L52.7993 78.098L51.7441 74.754L50.689 71.41L45.8812 71.3948C43.2369 71.3865 41.0734 71.3598 41.0734 71.3355C41.0734 71.3113 43.7769 63.1815 47.0811 53.2694C50.3854 43.3573 53.0889 35.2141 53.0889 35.1733C53.0889 35.1144 51.6296 35.0992 45.9615 35.0992H38.8341L30.4834 60.1498ZM61.4987 60.1498C56.9058 73.9276 53.1481 85.2204 53.1481 85.245C53.1481 85.2696 56.3622 85.2829 60.2905 85.2746L67.4329 85.2596L68.3546 82.4926L69.2763 79.7256H76.6079H83.9395L83.9001 79.5629C83.865 79.418 82.0452 73.6457 81.5211 72.0166L81.3164 71.3804H76.7026C74.1649 71.3804 72.0887 71.3647 72.0887 71.3455C72.0887 71.3263 74.7922 63.1816 78.0965 53.2461C81.4007 43.3106 84.1042 35.163 84.1042 35.1404C84.1042 35.1178 80.8968 35.0992 76.9768 35.0992H69.8494L61.4987 60.1498ZM52.0327 46.2422L48.5856 56.6161L51.3475 65.3152C52.8665 70.0996 54.1293 74.0512 54.1536 74.0966C54.1803 74.1462 55.5997 69.9742 57.7227 63.6057L61.2473 53.0327L58.4036 44.495C56.8397 39.7993 55.542 35.9374 55.5199 35.9129C55.4978 35.8884 53.9286 40.5366 52.0327 46.2422ZM82.6837 46.1966C80.4111 53.014 79.2471 56.5862 79.2642 56.6911C79.2784 56.7786 81.3238 63.2489 83.8096 71.0697L88.3293 85.2891H95.4799C99.4128 85.2891 102.631 85.2786 102.631 85.2657C102.631 85.229 86.1653 35.9005 86.1461 35.8797C86.1367 35.8696 84.5786 40.5122 82.6837 46.1966Z" fill="white"/>
</svg>
