<svg width="521" height="127" viewBox="0 0 521 127" fill="none" xmlns="http://www.w3.org/2000/svg">
<path fill-rule="evenodd" clip-rule="evenodd" d="M60.5533 0.0689453C40.6101 0.999446 22.3624 11.1834 11.0534 27.6947C2.43576 40.2766 -1.32903 55.5439 0.41794 70.8241C2.4007 88.1668 11.5313 103.98 25.6155 114.463C38.5954 124.124 54.6563 128.429 70.8221 126.581C89.0413 124.498 105.513 114.544 115.947 99.3102C124.564 86.729 128.329 71.4603 126.582 56.1808C124.5 37.9654 114.532 21.4731 99.3108 11.0588C87.957 3.29064 74.3289 -0.573698 60.5533 0.0689453ZM67.2586 4.75266C75.4376 5.33234 82.6309 7.27032 89.7196 10.8039C93.5631 12.7199 96.8503 14.8135 100.183 17.4684C112.603 27.3611 120.535 41.91 122.069 57.6094C122.295 59.9195 122.338 60.8661 122.338 63.5025C122.338 66.1389 122.295 67.0855 122.069 69.3955C120.535 85.0965 112.614 99.6251 100.183 109.537C91.3121 116.611 80.5916 120.975 69.3934 122.069C67.0833 122.294 66.1366 122.337 63.5 122.337C60.8627 122.337 59.9147 122.294 57.6066 122.068C46.4063 120.973 35.6862 116.61 26.8167 109.537C14.386 99.6251 6.46474 85.0965 4.93065 69.3955C4.70496 67.0855 4.66178 66.1389 4.66178 63.5025C4.66178 60.8661 4.70496 59.9195 4.93065 57.6094C6.46468 41.9095 14.3967 27.3614 26.8167 17.4684C32.2288 13.1575 38.3122 9.8472 44.8276 7.66774C50.169 5.88106 55.2898 4.95387 61.3952 4.66793C62.2325 4.62872 66.3495 4.6882 67.2586 4.75266ZM30.9711 61.1122C26.3048 75.1105 22.4869 86.5839 22.4869 86.6087C22.4869 86.6335 25.7545 86.6535 29.7484 86.6532L37.0099 86.6526L37.9382 83.8271L38.8667 81.0017L45.9923 80.9865L53.118 80.9712L53.381 80.1594L53.6441 79.3476L52.572 75.9501L51.5 72.5525L46.6153 72.5371C43.9287 72.5287 41.7306 72.5016 41.7306 72.4769C41.7306 72.4522 44.4773 64.1924 47.8344 54.1217C51.1916 44.051 53.9383 35.7775 53.9383 35.7361C53.9383 35.6762 52.4556 35.6608 46.6968 35.6608H39.4554L30.9711 61.1122ZM62.4827 61.1122C57.8163 75.1105 53.9984 86.584 53.9984 86.6089C53.9984 86.6339 57.264 86.6474 61.2552 86.639L68.5119 86.6237L69.4483 83.8125L70.3847 81.0012H77.8336H85.2825L85.2425 80.8359C85.2068 80.6887 83.358 74.8241 82.8254 73.1689L82.6174 72.5225H77.9298C75.3516 72.5225 73.2422 72.5065 73.2422 72.487C73.2422 72.4675 75.9889 64.1925 79.346 54.098C82.7031 44.0035 85.4499 35.7256 85.4499 35.7026C85.4499 35.6796 82.1912 35.6608 78.2084 35.6608H70.967L62.4827 61.1122ZM52.8652 46.9821L49.363 57.522L52.169 66.3602C53.7124 71.2212 54.9954 75.236 55.0201 75.2821C55.0472 75.3325 56.4893 71.0938 58.6462 64.6234L62.2272 53.8812L59.3381 45.207C57.7491 40.4361 56.4307 36.5124 56.4082 36.4875C56.3858 36.4626 54.7915 41.1852 52.8652 46.9821ZM84.0066 46.9358C81.6977 53.8622 80.5151 57.4916 80.5324 57.5982C80.5468 57.6871 82.625 64.2609 85.1506 72.2068L89.7425 86.6538H97.0076C101.003 86.6538 104.273 86.6431 104.273 86.63C104.273 86.5926 87.544 36.4749 87.5245 36.4538C87.5149 36.4435 85.9319 41.1604 84.0066 46.9358Z" fill="url(#paint0_linear_447_3)"/>
<path d="M146.957 38.7747H153.737L160.766 60.8572H154.608L153.271 56.534H147.393L146.086 60.8572H139.897L146.957 38.7747ZM152.307 52.4907L150.347 44.7152L148.295 52.4907H152.307ZM162.259 60.8572V44.4975H168.168V50.0648H172.523V44.4975H178.432V60.8572H172.523V54.8856H168.168V60.8572H162.259ZM189.539 61.1682C188.088 61.1682 186.802 60.9401 185.683 60.484C184.563 60.0278 183.619 59.4057 182.852 58.6178C182.106 57.8092 181.536 56.8969 181.142 55.8809C180.768 54.8649 180.582 53.797 180.582 52.6773C180.582 51.5577 180.768 50.4898 181.142 49.4738C181.536 48.4371 182.106 47.5248 182.852 46.7369C183.619 45.9489 184.563 45.3269 185.683 44.8707C186.802 44.4146 188.088 44.1865 189.539 44.1865C191.011 44.1865 192.297 44.4146 193.396 44.8707C194.516 45.3269 195.449 45.9489 196.195 46.7369C196.962 47.5248 197.532 48.4371 197.906 49.4738C198.3 50.4898 198.497 51.5577 198.497 52.6773C198.497 53.797 198.3 54.8649 197.906 55.8809C197.532 56.8969 196.962 57.8092 196.195 58.6178C195.449 59.4057 194.516 60.0278 193.396 60.484C192.297 60.9401 191.011 61.1682 189.539 61.1682ZM186.647 52.6773C186.647 53.4031 186.771 54.0355 187.02 54.5746C187.269 55.0929 187.611 55.4973 188.046 55.7875C188.482 56.0571 188.979 56.1919 189.539 56.1919C190.099 56.1919 190.597 56.0571 191.032 55.7875C191.468 55.4973 191.81 55.0929 192.058 54.5746C192.307 54.0355 192.432 53.4031 192.432 52.6773C192.432 51.9516 192.307 51.3296 192.058 50.8112C191.81 50.2721 191.468 49.8678 191.032 49.5982C190.597 49.308 190.099 49.1628 189.539 49.1628C188.979 49.1628 188.482 49.308 188.046 49.5982C187.611 49.8678 187.269 50.2721 187.02 50.8112C186.771 51.3296 186.647 51.9516 186.647 52.6773ZM200.651 60.8572V44.4975H206.56V50.0648H210.914V44.4975H216.824V60.8572H210.914V54.8856H206.56V60.8572H200.651ZM219.938 60.8572V44.4975H225.847V52.9884L231.01 44.4975H236.391V60.8572H230.481V52.6462L225.349 60.8572H219.938ZM239.498 60.8572V44.4975H245.687L249.668 52.4285L253.68 44.4975H259.839V60.8572H254.24V52.4285L251.503 57.9958H247.833L245.096 52.4285V60.8572H239.498ZM262.946 60.8572V44.4975H268.855V50.0648H273.21V44.4975H279.119V60.8572H273.21V54.8856H268.855V60.8572H262.946ZM282.233 60.8572V44.4975H288.142V49.1006H290.506C292.517 49.1006 294.072 49.6293 295.171 50.6868C296.27 51.7235 296.82 53.1024 296.82 54.8234C296.82 56.026 296.592 57.0835 296.135 57.9958C295.679 58.9081 295.005 59.6131 294.114 60.1107C293.243 60.6084 292.165 60.8572 290.879 60.8572H282.233ZM288.142 56.4096H289.884C290.216 56.4096 290.496 56.3474 290.724 56.223C290.952 56.0986 291.118 55.9223 291.221 55.6942C291.346 55.4454 291.408 55.1551 291.408 54.8234C291.408 54.4916 291.346 54.2117 291.221 53.9836C291.118 53.7555 290.952 53.5793 290.724 53.4549C290.496 53.3097 290.216 53.2372 289.884 53.2372H288.142V56.4096ZM299.121 60.8572V44.4975H305.031V60.8572H299.121ZM316.134 61.1682C314.704 61.1682 313.428 60.9505 312.309 60.5151C311.189 60.0589 310.246 59.4472 309.478 58.68C308.732 57.9129 308.162 57.0316 307.768 56.0364C307.374 55.0411 307.177 53.994 307.177 52.8951C307.177 51.3192 307.519 49.8782 308.203 48.5719C308.887 47.2449 309.893 46.1874 311.22 45.3995C312.547 44.5908 314.185 44.1865 316.134 44.1865C318.083 44.1865 319.721 44.5804 321.048 45.3684C322.375 46.1563 323.381 47.193 324.065 48.4786C324.749 49.7641 325.092 51.1637 325.092 52.6773C325.092 52.9884 325.071 53.3097 325.029 53.6415C325.009 53.9525 324.978 54.2324 324.936 54.4813H313.459C313.501 55.0618 313.656 55.5387 313.926 55.912C314.216 56.2644 314.569 56.5236 314.983 56.6895C315.419 56.8554 315.865 56.9383 316.321 56.9383C316.964 56.9383 317.565 56.7932 318.125 56.5029C318.705 56.2126 319.089 55.8083 319.276 55.2899L324.283 56.7206C323.848 57.5915 323.236 58.3586 322.448 59.0222C321.681 59.6857 320.768 60.2144 319.711 60.6084C318.653 60.9816 317.461 61.1682 316.134 61.1682ZM313.335 50.9356H318.747C318.685 50.3965 318.529 49.9404 318.28 49.5671C318.052 49.1939 317.741 48.9036 317.347 48.6963C316.974 48.4889 316.539 48.3853 316.041 48.3853C315.543 48.3853 315.097 48.4889 314.704 48.6963C314.33 48.9036 314.019 49.1939 313.77 49.5671C313.542 49.9404 313.397 50.3965 313.335 50.9356ZM338.581 38.7747H345.361L352.39 60.8572H346.232L344.895 56.534H339.016L337.71 60.8572H331.521L338.581 38.7747ZM343.93 52.4907L341.971 44.7152L339.918 52.4907H343.93ZM352.95 61.1682V55.9431C353.427 55.9223 353.841 55.829 354.194 55.6631C354.546 55.4973 354.847 55.2173 355.096 54.8234C355.365 54.4087 355.573 53.8281 355.718 53.0817C355.863 52.3145 355.967 51.3296 356.029 50.127L356.278 44.4975H369.932V60.8572H364.022V49.6293H361.503L361.441 50.749C361.337 52.7603 361.099 54.4398 360.725 55.7875C360.352 57.1353 359.823 58.2031 359.139 58.9911C358.455 59.7582 357.605 60.3077 356.589 60.6395C355.573 60.9712 354.36 61.1475 352.95 61.1682ZM373.048 60.8572V44.4975H378.927V50.0026H379.86L383.436 44.4975H389.719L384.307 52.3352L390.248 60.8572H383.53L379.704 55.0722H378.927V60.8572H373.048ZM399.873 61.1682C398.421 61.1682 397.136 60.9401 396.016 60.484C394.897 60.0278 393.953 59.4057 393.186 58.6178C392.439 57.8092 391.869 56.8969 391.475 55.8809C391.102 54.8649 390.915 53.797 390.915 52.6773C390.915 51.5577 391.102 50.4898 391.475 49.4738C391.869 48.4371 392.439 47.5248 393.186 46.7369C393.953 45.9489 394.897 45.3269 396.016 44.8707C397.136 44.4146 398.421 44.1865 399.873 44.1865C401.345 44.1865 402.631 44.4146 403.729 44.8707C404.849 45.3269 405.782 45.9489 406.529 46.7369C407.296 47.5248 407.866 48.4371 408.239 49.4738C408.633 50.4898 408.83 51.5577 408.83 52.6773C408.83 53.797 408.633 54.8649 408.239 55.8809C407.866 56.8969 407.296 57.8092 406.529 58.6178C405.782 59.4057 404.849 60.0278 403.729 60.484C402.631 60.9401 401.345 61.1682 399.873 61.1682ZM396.98 52.6773C396.98 53.4031 397.105 54.0355 397.354 54.5746C397.602 55.0929 397.945 55.4973 398.38 55.7875C398.815 56.0571 399.313 56.1919 399.873 56.1919C400.433 56.1919 400.93 56.0571 401.366 55.7875C401.801 55.4973 402.143 55.0929 402.392 54.5746C402.641 54.0355 402.765 53.4031 402.765 52.6773C402.765 51.9516 402.641 51.3296 402.392 50.8112C402.143 50.2721 401.801 49.8678 401.366 49.5982C400.93 49.308 400.433 49.1628 399.873 49.1628C399.313 49.1628 398.815 49.308 398.38 49.5982C397.945 49.8678 397.602 50.2721 397.354 50.8112C397.105 51.3296 396.98 51.9516 396.98 52.6773ZM410.984 60.8572V44.4975H422.741V49.6293H416.894V60.8572H410.984ZM432.676 61.1682C431.224 61.1682 429.939 60.9401 428.819 60.484C427.699 60.0278 426.756 59.4057 425.989 58.6178C425.242 57.8092 424.672 56.8969 424.278 55.8809C423.905 54.8649 423.718 53.797 423.718 52.6773C423.718 51.5577 423.905 50.4898 424.278 49.4738C424.672 48.4371 425.242 47.5248 425.989 46.7369C426.756 45.9489 427.699 45.3269 428.819 44.8707C429.939 44.4146 431.224 44.1865 432.676 44.1865C434.148 44.1865 435.433 44.4146 436.532 44.8707C437.652 45.3269 438.585 45.9489 439.332 46.7369C440.099 47.5248 440.669 48.4371 441.042 49.4738C441.436 50.4898 441.633 51.5577 441.633 52.6773C441.633 53.797 441.436 54.8649 441.042 55.8809C440.669 56.8969 440.099 57.8092 439.332 58.6178C438.585 59.4057 437.652 60.0278 436.532 60.484C435.433 60.9401 434.148 61.1682 432.676 61.1682ZM429.783 52.6773C429.783 53.4031 429.908 54.0355 430.157 54.5746C430.405 55.0929 430.747 55.4973 431.183 55.7875C431.618 56.0571 432.116 56.1919 432.676 56.1919C433.236 56.1919 433.733 56.0571 434.169 55.7875C434.604 55.4973 434.946 55.0929 435.195 54.5746C435.444 54.0355 435.568 53.4031 435.568 52.6773C435.568 51.9516 435.444 51.3296 435.195 50.8112C434.946 50.2721 434.604 49.8678 434.169 49.5982C433.733 49.308 433.236 49.1628 432.676 49.1628C432.116 49.1628 431.618 49.308 431.183 49.5982C430.747 49.8678 430.405 50.2721 430.157 50.8112C429.908 51.3296 429.783 51.9516 429.783 52.6773ZM442.854 61.1682V55.9431C443.331 55.9223 443.746 55.829 444.098 55.6631C444.451 55.4973 444.751 55.2173 445 54.8234C445.27 54.4087 445.477 53.8281 445.622 53.0817C445.767 52.3145 445.871 51.3296 445.933 50.127L446.182 44.4975H459.836V60.8572H453.926V49.6293H451.407L451.345 50.749C451.241 52.7603 451.003 54.4398 450.63 55.7875C450.256 57.1353 449.728 58.2031 449.043 58.9911C448.359 59.7582 447.509 60.3077 446.493 60.6395C445.477 60.9712 444.264 61.1475 442.854 61.1682ZM462.953 60.8572V44.4975H468.862V52.9884L474.025 44.4975H479.406V60.8572H473.496V52.6462L468.364 60.8572H462.953ZM482.513 60.8572V44.4975H488.391V50.0026H489.324L492.901 44.4975H499.184L493.772 52.3352L499.712 60.8572H492.994L489.169 55.0722H488.391V60.8572H482.513ZM502.164 60.8572V44.4975H508.074V52.9884L513.237 44.4975H518.617V60.8572H512.708V52.6462L507.576 60.8572H502.164Z" fill="#080C30"/>
<path d="M141.685 90.1429V77.9898H148.94V79.4127H143.271V90.1429H141.685ZM150.929 90.1429V87.8569H152.305V90.1429H150.929ZM161.854 90.1429V73.5811H163.486V80.9523H165.982L171.674 73.5811H173.564L167.335 81.6054L173.96 90.1429H171.954L166.029 82.4452H163.486V90.1429H161.854ZM175.331 86.644C175.331 85.882 175.549 85.2288 175.985 84.6845C176.42 84.1247 177.019 83.697 177.781 83.4016C178.558 83.0906 179.452 82.935 180.463 82.935C181.054 82.935 181.668 82.9817 182.306 83.075C182.944 83.1683 183.511 83.3083 184.009 83.4949V82.4685C184.009 81.4421 183.706 80.6257 183.099 80.0192C182.493 79.4127 181.653 79.1095 180.58 79.1095C179.927 79.1095 179.281 79.2339 178.644 79.4827C178.022 79.716 177.369 80.0659 176.684 80.5324L176.078 79.4127C176.871 78.8685 177.649 78.4641 178.411 78.1998C179.173 77.9198 179.95 77.7799 180.743 77.7799C182.236 77.7799 183.418 78.2075 184.289 79.0628C185.16 79.9181 185.595 81.1 185.595 82.6085V88.2302C185.595 88.4479 185.642 88.6112 185.735 88.72C185.828 88.8133 185.976 88.8678 186.178 88.8833V90.1429C186.007 90.1585 185.859 90.174 185.735 90.1896C185.611 90.2051 185.517 90.2051 185.455 90.1896C185.066 90.174 184.771 90.0496 184.569 89.8164C184.367 89.5831 184.258 89.3343 184.242 89.0699L184.219 88.1835C183.675 88.8833 182.967 89.4276 182.096 89.8164C181.225 90.1896 180.339 90.3762 179.437 90.3762C178.659 90.3762 177.952 90.2129 177.314 89.8864C176.692 89.5442 176.202 89.0933 175.845 88.5334C175.502 87.958 175.331 87.3282 175.331 86.644ZM183.472 87.577C183.643 87.3593 183.776 87.1494 183.869 86.9472C183.962 86.745 184.009 86.5662 184.009 86.4107V84.6379C183.48 84.4357 182.928 84.2802 182.353 84.1714C181.793 84.0625 181.225 84.0081 180.65 84.0081C179.515 84.0081 178.597 84.2336 177.897 84.6845C177.198 85.1355 176.848 85.7498 176.848 86.5273C176.848 86.9783 176.964 87.406 177.198 87.8103C177.431 88.1991 177.773 88.5256 178.224 88.79C178.675 89.0388 179.204 89.1632 179.81 89.1632C180.572 89.1632 181.28 89.0155 181.933 88.72C182.602 88.4246 183.115 88.0436 183.472 87.577ZM192.545 90.2829C191.425 90.2829 190.469 90.073 189.675 89.6531C188.882 89.2177 188.276 88.6112 187.856 87.8336L189.162 87.2505C189.458 87.7947 189.885 88.2224 190.445 88.5334C191.005 88.8289 191.681 88.9766 192.475 88.9766C193.423 88.9766 194.177 88.7589 194.737 88.3235C195.313 87.888 195.6 87.3049 195.6 86.574C195.6 85.9053 195.375 85.3688 194.924 84.9645C194.473 84.5601 193.851 84.3502 193.058 84.3346H191.821V83.2383H193.151C193.493 83.2383 193.804 83.145 194.084 82.9584C194.364 82.7718 194.582 82.5229 194.737 82.2119C194.893 81.9009 194.971 81.551 194.971 81.1622C194.971 80.5557 194.753 80.0659 194.317 79.6927C193.898 79.3194 193.275 79.1328 192.451 79.1328C191.767 79.1328 191.192 79.2728 190.725 79.5527C190.274 79.8171 189.909 80.2136 189.629 80.7424L188.416 80.0892C188.773 79.3739 189.302 78.814 190.002 78.4097C190.717 78.0054 191.549 77.8032 192.498 77.8032C193.275 77.8032 193.952 77.9354 194.527 78.1998C195.118 78.4486 195.577 78.814 195.904 79.2961C196.246 79.7626 196.417 80.3302 196.417 80.9989C196.417 81.5743 196.277 82.1108 195.997 82.6085C195.717 83.0906 195.328 83.456 194.831 83.7048C195.546 83.9225 196.098 84.3035 196.487 84.8478C196.891 85.3921 197.093 86.0297 197.093 86.7606C197.093 87.4915 196.899 88.1213 196.51 88.65C196.121 89.1788 195.585 89.5831 194.901 89.863C194.216 90.1429 193.431 90.2829 192.545 90.2829ZM198.772 86.644C198.772 85.882 198.99 85.2288 199.425 84.6845C199.86 84.1247 200.459 83.697 201.221 83.4016C201.999 83.0906 202.893 82.935 203.904 82.935C204.495 82.935 205.109 82.9817 205.746 83.075C206.384 83.1683 206.952 83.3083 207.449 83.4949V82.4685C207.449 81.4421 207.146 80.6257 206.54 80.0192C205.933 79.4127 205.093 79.1095 204.02 79.1095C203.367 79.1095 202.722 79.2339 202.084 79.4827C201.462 79.716 200.809 80.0659 200.125 80.5324L199.518 79.4127C200.311 78.8685 201.089 78.4641 201.851 78.1998C202.613 77.9198 203.391 77.7799 204.184 77.7799C205.677 77.7799 206.858 78.2075 207.729 79.0628C208.6 79.9181 209.036 81.1 209.036 82.6085V88.2302C209.036 88.4479 209.082 88.6112 209.175 88.72C209.269 88.8133 209.417 88.8678 209.619 88.8833V90.1429C209.448 90.1585 209.3 90.174 209.175 90.1896C209.051 90.2051 208.958 90.2051 208.896 90.1896C208.507 90.174 208.211 90.0496 208.009 89.8164C207.807 89.5831 207.698 89.3343 207.683 89.0699L207.659 88.1835C207.115 88.8833 206.407 89.4276 205.537 89.8164C204.666 90.1896 203.779 90.3762 202.877 90.3762C202.1 90.3762 201.392 90.2129 200.755 89.8864C200.133 89.5442 199.643 89.0933 199.285 88.5334C198.943 87.958 198.772 87.3282 198.772 86.644ZM206.913 87.577C207.084 87.3593 207.216 87.1494 207.309 86.9472C207.403 86.745 207.449 86.5662 207.449 86.4107V84.6379C206.921 84.4357 206.369 84.2802 205.793 84.1714C205.233 84.0625 204.666 84.0081 204.09 84.0081C202.955 84.0081 202.038 84.2336 201.338 84.6845C200.638 85.1355 200.288 85.7498 200.288 86.5273C200.288 86.9783 200.405 87.406 200.638 87.8103C200.871 88.1991 201.213 88.5256 201.664 88.79C202.115 89.0388 202.644 89.1632 203.251 89.1632C204.013 89.1632 204.72 89.0155 205.373 88.72C206.042 88.4246 206.555 88.0436 206.913 87.577ZM212.439 90.1429V77.9898H214.026V83.215H220.977V77.9898H222.563V90.1429H220.977V84.6379H214.026V90.1429H212.439ZM226.039 90.1429V77.9898H227.625V82.2819H230.774C232.158 82.2819 233.2 82.6396 233.9 83.3549C234.615 84.0547 234.973 84.98 234.973 86.1308C234.973 86.8772 234.817 87.5537 234.506 88.1602C234.195 88.7667 233.737 89.2488 233.13 89.6064C232.539 89.9641 231.793 90.1429 230.891 90.1429H226.039ZM227.625 88.8833H230.681C231.318 88.8833 231.832 88.7589 232.22 88.5101C232.609 88.2457 232.897 87.9114 233.084 87.507C233.27 87.0872 233.363 86.6362 233.363 86.1541C233.363 85.6876 233.278 85.2599 233.107 84.8711C232.951 84.4668 232.671 84.148 232.267 83.9148C231.878 83.6659 231.334 83.5415 230.634 83.5415H227.625V88.8833Z" fill="#080C30"/>
<defs>
<linearGradient id="paint0_linear_447_3" x1="63.5" y1="0" x2="63.5" y2="127" gradientUnits="userSpaceOnUse">
<stop stop-color="#4172D0"/>
<stop offset="1" stop-color="#2141ED"/>
</linearGradient>
</defs>
</svg>
