<svg width="60" height="61" viewBox="0 0 60 61" fill="none" xmlns="http://www.w3.org/2000/svg">
<path fill-rule="evenodd" clip-rule="evenodd" d="M28.6079 0.0325744C19.1859 0.472206 10.5649 5.28378 5.22208 13.0849C1.15075 19.0294 -0.627887 26.2427 0.197452 33.4621C1.13419 41.656 5.44786 49.127 12.1018 54.0799C18.234 58.6444 25.8219 60.6786 33.4592 59.8054C42.0668 58.8214 49.8486 54.1182 54.7779 46.9209C58.849 40.9766 60.6279 33.7627 59.8026 26.5436C58.8187 17.9374 54.1095 10.1453 46.9185 5.22494C41.5545 1.55472 35.116 -0.271054 28.6079 0.0325744ZM31.7757 2.24548C35.6398 2.51936 39.0382 3.43499 42.3872 5.1045C44.203 6.00974 45.7561 6.99892 47.3307 8.25327C53.1983 12.9272 56.9459 19.8011 57.6706 27.2186C57.7772 28.31 57.7976 28.7573 57.7976 30.0029C57.7976 31.2485 57.7772 31.6957 57.6706 32.7872C56.9458 40.2053 53.2035 47.0696 47.3307 51.7529C43.1396 55.0952 38.0748 57.1566 32.7843 57.6734C31.6929 57.7801 31.2456 57.8005 30 57.8005C28.754 57.8005 28.3061 57.78 27.2157 57.6734C21.9242 57.1558 16.8596 55.0945 12.6693 51.7529C6.79653 47.0696 3.05421 40.2053 2.32944 32.7872C2.22281 31.6957 2.20242 31.2485 2.20242 30.0029C2.20242 28.7573 2.22281 28.31 2.32944 27.2186C3.05418 19.8009 6.80159 12.9274 12.6693 8.25327C15.2262 6.21648 18.1003 4.65249 21.1784 3.62276C23.7019 2.77861 26.1211 2.34054 29.0056 2.20545C29.4012 2.18692 31.3462 2.21502 31.7757 2.24548ZM14.632 28.8735C12.4274 35.4873 10.6237 40.9081 10.6237 40.9198C10.6237 40.9315 12.1675 40.941 14.0543 40.9408L17.485 40.9406L17.9236 39.6056L18.3622 38.2707L21.7287 38.2635L25.0951 38.2563L25.2194 37.8727L25.3437 37.4892L24.8372 35.8839L24.3307 34.2787L22.023 34.2715C20.7537 34.2674 19.7152 34.2547 19.7152 34.243C19.7152 34.2313 21.0129 30.3288 22.5989 25.5708C24.185 20.8127 25.4827 16.9037 25.4827 16.8842C25.4827 16.8559 24.7822 16.8486 22.0615 16.8486H18.6404L14.632 28.8735ZM29.5194 28.8735C27.3148 35.4873 25.5111 40.9081 25.5111 40.9199C25.5111 40.9317 27.0539 40.9381 28.9395 40.9341L32.3678 40.9269L32.8102 39.5987L33.2526 38.2705H36.7718H40.291L40.272 38.1923C40.2552 38.1228 39.3817 35.352 39.1301 34.5699L39.0319 34.2645H36.8172C35.5992 34.2645 34.6026 34.257 34.6026 34.2478C34.6026 34.2386 35.9003 30.3289 37.4863 25.5596C39.0724 20.7902 40.37 16.8792 40.37 16.8683C40.37 16.8575 38.8305 16.8486 36.9489 16.8486H33.5277L29.5194 28.8735ZM24.9757 22.1975L23.3211 27.1773L24.6468 31.353C25.3759 33.6497 25.9821 35.5466 25.9938 35.5684C26.0066 35.5922 26.6879 33.5895 27.7069 30.5325L29.3987 25.4571L28.0337 21.3588C27.283 19.1048 26.6602 17.2509 26.6496 17.2392C26.639 17.2274 25.8857 19.4587 24.9757 22.1975ZM39.6882 22.1756C38.5973 25.4482 38.0386 27.1629 38.0468 27.2133C38.0536 27.2553 39.0354 30.3612 40.2286 34.1154L42.3981 40.9411H45.8304C47.7181 40.9411 49.2627 40.936 49.2627 40.9299C49.2627 40.9122 41.3594 17.2332 41.3501 17.2232C41.3456 17.2184 40.5977 19.4469 39.6882 22.1756Z" fill="url(#paint0_linear_447_2)"/>
<defs>
<linearGradient id="paint0_linear_447_2" x1="30" y1="0" x2="30" y2="60.0034" gradientUnits="userSpaceOnUse">
<stop stop-color="#4172D0"/>
<stop offset="1" stop-color="#2141ED"/>
</linearGradient>
</defs>
</svg>
