<svg width="134" height="50" viewBox="0 0 134 50" fill="none" xmlns="http://www.w3.org/2000/svg">
<path fill-rule="evenodd" clip-rule="evenodd" d="M23.2331 0.299831C15.5812 0.656865 8.58001 4.56445 4.24096 10.8999C0.934552 15.7276 -0.50992 21.5856 0.160355 27.4487C0.9211 34.1031 4.42432 40.1704 9.82815 44.1928C14.8082 47.8997 20.9705 49.5517 27.173 48.8426C34.1633 48.0435 40.4831 44.2239 44.4863 38.3788C47.7926 33.5514 49.2372 27.6928 48.5669 21.83C47.7679 14.8407 43.9434 8.51261 38.1035 4.51666C33.7473 1.536 28.5185 0.0532479 23.2331 0.299831ZM25.8057 2.09698C28.9439 2.3194 31.7038 3.063 34.4235 4.41885C35.8982 5.15401 37.1595 5.95735 38.4383 6.97603C43.2034 10.7718 46.247 16.3543 46.8355 22.3782C46.9221 23.2645 46.9387 23.6277 46.9387 24.6393C46.9387 25.6509 46.9221 26.0142 46.8355 26.9005C46.2469 32.925 43.2077 38.4996 38.4383 42.303C35.0345 45.0173 30.9213 46.6914 26.6248 47.1112C25.7385 47.1978 25.3752 47.2144 24.3636 47.2144C23.3518 47.2144 22.988 47.1978 22.1025 47.1112C17.8051 46.6908 13.6921 45.0168 10.289 42.303C5.51961 38.4996 2.48039 32.925 1.89179 26.9005C1.8052 26.0142 1.78863 25.6509 1.78863 24.6393C1.78863 23.6277 1.8052 23.2645 1.89179 22.3782C2.48036 16.3541 5.52371 10.772 10.289 6.97603C12.3655 5.32191 14.6996 4.05176 17.1994 3.21549C19.2488 2.52994 21.2135 2.17418 23.5561 2.06447C23.8773 2.04942 25.4569 2.07224 25.8057 2.09698ZM11.883 23.7222C10.0926 29.0933 8.62775 33.4957 8.62775 33.5052C8.62775 33.5147 9.88147 33.5224 11.4138 33.5223L14.1999 33.5221L14.5561 32.4379L14.9123 31.3538L17.6463 31.348L20.3803 31.3421L20.4812 31.0306L20.5821 30.7191L20.1708 29.4155L19.7595 28.1119L17.8853 28.106C16.8545 28.1027 16.0112 28.0923 16.0112 28.0828C16.0112 28.0734 17.065 24.9041 18.3531 21.0399C19.6411 17.1758 20.695 14.0012 20.695 13.9854C20.695 13.9624 20.1261 13.9565 17.9166 13.9565H15.1382L11.883 23.7222ZM23.9733 23.7222C22.1829 29.0933 20.7181 33.4957 20.7181 33.5053C20.7181 33.5149 21.971 33.5201 23.5023 33.5168L26.2866 33.511L26.6459 32.4323L27.0052 31.3536H29.8631H32.7211L32.7058 31.2902C32.6921 31.2337 31.9827 28.9834 31.7784 28.3484L31.6986 28.1003H29.9C28.9108 28.1003 28.1015 28.0942 28.1015 28.0867C28.1015 28.0792 29.1554 24.9041 30.4434 21.0308C31.7315 17.1576 32.7854 13.9813 32.7854 13.9725C32.7854 13.9637 31.5351 13.9565 30.0069 13.9565H27.2286L23.9733 23.7222ZM20.2833 18.3005L18.9396 22.3446L20.0162 25.7359C20.6083 27.601 21.1006 29.1415 21.1101 29.1592C21.1205 29.1785 21.6738 27.5521 22.5013 25.0695L23.8753 20.9476L22.7668 17.6193C22.1571 15.7888 21.6513 14.2832 21.6427 14.2737C21.6341 14.2641 21.0224 16.0762 20.2833 18.3005ZM32.2316 18.2827C31.3457 20.9404 30.892 22.333 30.8986 22.3739C30.9041 22.408 31.7015 24.9303 32.6705 27.9792L34.4324 33.5225H37.2198C38.7529 33.5225 40.0073 33.5184 40.0073 33.5134C40.0073 33.4991 33.5888 14.2688 33.5813 14.2607C33.5777 14.2568 32.9703 16.0666 32.2316 18.2827Z" fill="#0E0E0E"/>
<path d="M61.1917 32.4263H58.4403V16.5087H61.1917V23.4897L68.3319 16.5087H71.9247L64.6936 23.6489L72.4477 32.4263H68.7867L62.6243 25.4908L61.1917 26.8779V32.4263ZM74.7828 23.99L73.5094 22.0798C74.1006 21.5189 74.851 21.0869 75.7606 20.7837C76.6702 20.4805 77.5722 20.3289 78.4666 20.3289C80.028 20.3289 81.2256 20.7534 82.0594 21.6023C82.8932 22.4361 83.3101 23.6337 83.3101 25.1951V32.4263H80.7178V31.1301C79.8537 32.0852 78.6333 32.5627 77.0567 32.5627C75.8288 32.5627 74.8055 32.2444 73.9869 31.6077C73.1683 30.9558 72.759 30.0311 72.759 28.8334C72.759 28.1058 72.9257 27.4842 73.2592 26.9688C73.5928 26.4534 74.0475 26.0668 74.6236 25.8091C75.1997 25.5514 75.7833 25.3695 76.3745 25.2634C76.9658 25.1421 77.6025 25.0814 78.2847 25.0814C79.1791 25.0814 79.9901 25.1876 80.7178 25.3998C80.7481 24.566 80.5662 23.9066 80.172 23.4215C79.7779 22.9667 79.1109 22.7393 78.171 22.7393C77.0037 22.7393 75.8743 23.1562 74.7828 23.99ZM77.6252 30.3115C78.2468 30.3115 78.838 30.1675 79.3989 29.8795C79.9598 29.5914 80.3994 29.1973 80.7178 28.697V27.56C79.9598 27.3478 79.2397 27.2417 78.5575 27.2417C76.4807 27.2417 75.4422 27.7647 75.4422 28.8107C75.4422 29.3261 75.662 29.7051 76.1017 29.9477C76.5565 30.1902 77.0643 30.3115 77.6252 30.3115ZM90.0905 32.6991C87.5892 32.6991 85.77 31.7441 84.633 29.834L86.5886 28.4696C86.9524 29.076 87.4451 29.5459 88.0667 29.8795C88.7034 30.1978 89.3856 30.357 90.1132 30.357C90.7499 30.357 91.3487 30.2281 91.9096 29.9704C92.4705 29.7127 92.751 29.2958 92.751 28.7197C92.751 27.9314 92.1219 27.5373 90.8636 27.5373H88.2486V25.2861H90.7272C91.1517 25.2861 91.5231 25.18 91.8414 24.9677C92.1749 24.7404 92.3417 24.4296 92.3417 24.0354C92.3417 23.5352 92.1067 23.1713 91.6368 22.9439C91.1668 22.7165 90.6514 22.6029 90.0905 22.6029C88.7261 22.6029 87.6119 23.1334 86.7478 24.1946L84.9059 22.9667C85.4213 22.0723 86.1641 21.3977 87.1344 20.9429C88.1046 20.4881 89.1354 20.2607 90.2269 20.2607C91.0304 20.2607 91.7732 20.3592 92.4554 20.5563C93.1376 20.7382 93.7364 21.1021 94.2518 21.6478C94.7672 22.1784 95.0249 22.853 95.0249 23.6716C95.0249 24.6267 94.6384 25.415 93.8652 26.0365C94.9112 26.6277 95.4342 27.5146 95.4342 28.697C95.4342 29.6066 95.1462 30.3797 94.5701 31.0164C94.0092 31.638 93.3422 32.0776 92.5691 32.3353C91.7959 32.5779 90.9697 32.6991 90.0905 32.6991ZM98.5215 23.99L97.2481 22.0798C97.8393 21.5189 98.5897 21.0869 99.4993 20.7837C100.409 20.4805 101.311 20.3289 102.205 20.3289C103.767 20.3289 104.964 20.7534 105.798 21.6023C106.632 22.4361 107.049 23.6337 107.049 25.1951V32.4263H104.456V31.1301C103.592 32.0852 102.372 32.5627 100.795 32.5627C99.5675 32.5627 98.5442 32.2444 97.7256 31.6077C96.907 30.9558 96.4977 30.0311 96.4977 28.8334C96.4977 28.1058 96.6644 27.4842 96.9979 26.9688C97.3314 26.4534 97.7862 26.0668 98.3623 25.8091C98.9384 25.5514 99.522 25.3695 100.113 25.2634C100.704 25.1421 101.341 25.0814 102.023 25.0814C102.918 25.0814 103.729 25.1876 104.456 25.3998C104.487 24.566 104.305 23.9066 103.911 23.4215C103.517 22.9667 102.85 22.7393 101.91 22.7393C100.742 22.7393 99.613 23.1562 98.5215 23.99ZM101.364 30.3115C101.985 30.3115 102.577 30.1675 103.138 29.8795C103.698 29.5914 104.138 29.1973 104.456 28.697V27.56C103.698 27.3478 102.978 27.2417 102.296 27.2417C100.219 27.2417 99.1809 27.7647 99.1809 28.8107C99.1809 29.3261 99.4007 29.7051 99.8404 29.9477C100.295 30.1902 100.803 30.3115 101.364 30.3115ZM120.264 32.4263H117.672V27.6283H111.987V32.4263H109.395V20.6018H111.987V25.2406H117.672V20.6018H120.264V32.4263ZM127.631 32.4263H122.697V20.6018H125.289V24.0354H127.79C131.125 24.0354 132.793 25.4225 132.793 28.1967C132.793 29.6521 132.308 30.7208 131.338 31.403C130.367 32.0852 129.132 32.4263 127.631 32.4263ZM127.563 26.4458H125.289V30.0159H127.54C129.253 30.0159 130.11 29.4171 130.11 28.2195C130.11 27.037 129.261 26.4458 127.563 26.4458Z" fill="#0E0E0E"/>
</svg>
