<svg width="165" height="61" viewBox="0 0 165 61" fill="none" xmlns="http://www.w3.org/2000/svg">
<path fill-rule="evenodd" clip-rule="evenodd" d="M28.6079 0.0325744C19.1859 0.472206 10.5649 5.28378 5.22208 13.0849C1.15075 19.0294 -0.627887 26.2427 0.197452 33.4621C1.13419 41.656 5.44786 49.127 12.1018 54.0799C18.234 58.6444 25.8219 60.6786 33.4592 59.8054C42.0668 58.8214 49.8486 54.1182 54.7779 46.9209C58.849 40.9766 60.6279 33.7627 59.8026 26.5436C58.8187 17.9374 54.1095 10.1453 46.9185 5.22494C41.5545 1.55472 35.116 -0.271054 28.6079 0.0325744ZM31.7757 2.24548C35.6398 2.51936 39.0382 3.43499 42.3872 5.1045C44.203 6.00974 45.7561 6.99892 47.3307 8.25327C53.1983 12.9272 56.9459 19.8011 57.6706 27.2186C57.7772 28.31 57.7976 28.7573 57.7976 30.0029C57.7976 31.2485 57.7772 31.6957 57.6706 32.7872C56.9458 40.2053 53.2035 47.0696 47.3307 51.7529C43.1396 55.0952 38.0748 57.1566 32.7843 57.6734C31.6929 57.7801 31.2456 57.8005 30 57.8005C28.754 57.8005 28.3061 57.78 27.2157 57.6734C21.9242 57.1558 16.8596 55.0945 12.6693 51.7529C6.79653 47.0696 3.05421 40.2053 2.32944 32.7872C2.22281 31.6957 2.20242 31.2485 2.20242 30.0029C2.20242 28.7573 2.22281 28.31 2.32944 27.2186C3.05418 19.8009 6.80159 12.9274 12.6693 8.25327C15.2262 6.21648 18.1003 4.65249 21.1784 3.62276C23.7019 2.77861 26.1211 2.34054 29.0056 2.20545C29.4012 2.18692 31.3462 2.21502 31.7757 2.24548ZM14.632 28.8735C12.4274 35.4873 10.6237 40.9081 10.6237 40.9198C10.6237 40.9315 12.1675 40.941 14.0543 40.9408L17.485 40.9406L17.9236 39.6056L18.3622 38.2707L21.7287 38.2635L25.0951 38.2563L25.2194 37.8727L25.3437 37.4892L24.8372 35.8839L24.3307 34.2787L22.023 34.2715C20.7537 34.2674 19.7152 34.2547 19.7152 34.243C19.7152 34.2313 21.0129 30.3288 22.5989 25.5708C24.185 20.8127 25.4827 16.9037 25.4827 16.8842C25.4827 16.8559 24.7822 16.8486 22.0615 16.8486H18.6404L14.632 28.8735ZM29.5194 28.8735C27.3148 35.4873 25.5111 40.9081 25.5111 40.9199C25.5111 40.9317 27.0539 40.9381 28.9395 40.9341L32.3678 40.9269L32.8102 39.5987L33.2526 38.2705H36.7718H40.291L40.272 38.1923C40.2552 38.1228 39.3817 35.352 39.1301 34.5699L39.0319 34.2645H36.8172C35.5992 34.2645 34.6026 34.257 34.6026 34.2478C34.6026 34.2386 35.9003 30.3289 37.4863 25.5596C39.0724 20.7902 40.37 16.8792 40.37 16.8683C40.37 16.8575 38.8305 16.8486 36.9489 16.8486H33.5277L29.5194 28.8735ZM24.9757 22.1975L23.3211 27.1773L24.6468 31.353C25.3759 33.6497 25.9821 35.5466 25.9938 35.5684C26.0066 35.5922 26.6879 33.5895 27.7069 30.5325L29.3987 25.4571L28.0337 21.3588C27.283 19.1048 26.6602 17.2509 26.6496 17.2392C26.639 17.2274 25.8857 19.4587 24.9757 22.1975ZM39.6882 22.1756C38.5973 25.4482 38.0386 27.1629 38.0468 27.2133C38.0536 27.2553 39.0354 30.3612 40.2286 34.1154L42.3981 40.9411H45.8304C47.7181 40.9411 49.2627 40.936 49.2627 40.9299C49.2627 40.9122 41.3594 17.2332 41.3501 17.2232C41.3456 17.2184 40.5977 19.4469 39.6882 22.1756Z" fill="url(#paint0_linear_241_42)"/>
<path d="M75.348 39.5017H71.96V19.9017H75.348V28.4977L84.14 19.9017H88.564L79.66 28.6937L89.208 39.5017H84.7L77.112 30.9617L75.348 32.6697V39.5017ZM92.0833 29.1137L90.5153 26.7617C91.2433 26.071 92.1673 25.539 93.2873 25.1657C94.4073 24.7924 95.5179 24.6057 96.6193 24.6057C98.5419 24.6057 100.017 25.1284 101.043 26.1737C102.07 27.2004 102.583 28.675 102.583 30.5977V39.5017H99.3913V37.9057C98.3273 39.0817 96.8246 39.6697 94.8833 39.6697C93.3713 39.6697 92.1113 39.2777 91.1033 38.4937C90.0953 37.691 89.5913 36.5524 89.5913 35.0777C89.5913 34.1817 89.7966 33.4164 90.2073 32.7817C90.6179 32.147 91.1779 31.671 91.8873 31.3537C92.5966 31.0364 93.3153 30.8124 94.0433 30.6817C94.7713 30.5324 95.5553 30.4577 96.3953 30.4577C97.4966 30.4577 98.4953 30.5884 99.3913 30.8497C99.4286 29.823 99.2046 29.011 98.7193 28.4137C98.2339 27.8537 97.4126 27.5737 96.2553 27.5737C94.8179 27.5737 93.4273 28.087 92.0833 29.1137ZM95.5833 36.8977C96.3486 36.8977 97.0766 36.7204 97.7673 36.3657C98.4579 36.011 98.9993 35.5257 99.3913 34.9097V33.5097C98.4579 33.2484 97.5713 33.1177 96.7313 33.1177C94.1739 33.1177 92.8953 33.7617 92.8953 35.0497C92.8953 35.6844 93.1659 36.151 93.7073 36.4497C94.2673 36.7484 94.8926 36.8977 95.5833 36.8977ZM110.932 39.8377C107.852 39.8377 105.612 38.6617 104.212 36.3097L106.62 34.6297C107.068 35.3764 107.675 35.955 108.44 36.3657C109.224 36.7577 110.064 36.9537 110.96 36.9537C111.744 36.9537 112.482 36.795 113.172 36.4777C113.863 36.1604 114.208 35.647 114.208 34.9377C114.208 33.967 113.434 33.4817 111.884 33.4817H108.664V30.7097H111.716C112.239 30.7097 112.696 30.579 113.088 30.3177C113.499 30.0377 113.704 29.655 113.704 29.1697C113.704 28.5537 113.415 28.1057 112.836 27.8257C112.258 27.5457 111.623 27.4057 110.932 27.4057C109.252 27.4057 107.88 28.059 106.816 29.3657L104.548 27.8537C105.183 26.7524 106.098 25.9217 107.292 25.3617C108.487 24.8017 109.756 24.5217 111.1 24.5217C112.09 24.5217 113.004 24.643 113.844 24.8857C114.684 25.1097 115.422 25.5577 116.056 26.2297C116.691 26.883 117.008 27.7137 117.008 28.7217C117.008 29.8977 116.532 30.8684 115.58 31.6337C116.868 32.3617 117.512 33.4537 117.512 34.9097C117.512 36.0297 117.158 36.9817 116.448 37.7657C115.758 38.531 114.936 39.0724 113.984 39.3897C113.032 39.6884 112.015 39.8377 110.932 39.8377ZM121.314 29.1137L119.746 26.7617C120.474 26.071 121.398 25.539 122.518 25.1657C123.638 24.7924 124.748 24.6057 125.85 24.6057C127.772 24.6057 129.247 25.1284 130.274 26.1737C131.3 27.2004 131.814 28.675 131.814 30.5977V39.5017H128.622V37.9057C127.558 39.0817 126.055 39.6697 124.114 39.6697C122.602 39.6697 121.342 39.2777 120.334 38.4937C119.326 37.691 118.822 36.5524 118.822 35.0777C118.822 34.1817 119.027 33.4164 119.438 32.7817C119.848 32.147 120.408 31.671 121.118 31.3537C121.827 31.0364 122.546 30.8124 123.274 30.6817C124.002 30.5324 124.786 30.4577 125.626 30.4577C126.727 30.4577 127.726 30.5884 128.622 30.8497C128.659 29.823 128.435 29.011 127.95 28.4137C127.464 27.8537 126.643 27.5737 125.486 27.5737C124.048 27.5737 122.658 28.087 121.314 29.1137ZM124.814 36.8977C125.579 36.8977 126.307 36.7204 126.998 36.3657C127.688 36.011 128.23 35.5257 128.622 34.9097V33.5097C127.688 33.2484 126.802 33.1177 125.962 33.1177C123.404 33.1177 122.126 33.7617 122.126 35.0497C122.126 35.6844 122.396 36.151 122.938 36.4497C123.498 36.7484 124.123 36.8977 124.814 36.8977ZM148.087 39.5017H144.895V33.5937H137.895V39.5017H134.703V24.9417H137.895V30.6537H144.895V24.9417H148.087V39.5017ZM157.158 39.5017H151.082V24.9417H154.274V29.1697H157.354C161.46 29.1697 163.514 30.8777 163.514 34.2937C163.514 36.0857 162.916 37.4017 161.722 38.2417C160.527 39.0817 159.006 39.5017 157.158 39.5017ZM157.074 32.1377H154.274V36.5337H157.046C159.155 36.5337 160.21 35.7964 160.21 34.3217C160.21 32.8657 159.164 32.1377 157.074 32.1377Z" fill="url(#paint1_linear_241_42)"/>
<defs>
<linearGradient id="paint0_linear_241_42" x1="0" y1="0" x2="78.0974" y2="24.8665" gradientUnits="userSpaceOnUse">
<stop stop-color="#4172D0"/>
<stop offset="1" stop-color="#2141ED"/>
</linearGradient>
<linearGradient id="paint1_linear_241_42" x1="70" y1="12.5017" x2="147.957" y2="79.879" gradientUnits="userSpaceOnUse">
<stop stop-color="#4172D0"/>
<stop offset="1" stop-color="#2141ED"/>
</linearGradient>
</defs>
</svg>
