<svg width="21" height="21" viewBox="0 0 21 21" fill="none" xmlns="http://www.w3.org/2000/svg">
<path d="M8.85658 17.7132C10.8216 17.7128 12.73 17.0549 14.2779 15.8444L19.1446 20.7111L20.71 19.1457L15.8433 14.279C17.0544 12.731 17.7127 10.8221 17.7132 8.85658C17.7132 3.97328 13.7399 0 8.85658 0C3.97328 0 0 3.97328 0 8.85658C0 13.7399 3.97328 17.7132 8.85658 17.7132ZM8.85658 2.21414C12.5199 2.21414 15.499 5.19328 15.499 8.85658C15.499 12.5199 12.5199 15.499 8.85658 15.499C5.19328 15.499 2.21414 12.5199 2.21414 8.85658C2.21414 5.19328 5.19328 2.21414 8.85658 2.21414Z" fill="white"/>
</svg>
